<?xml version="1.0" standalone="no"?>
<!DOCTYPE svg PUBLIC "-//W3C//DTD SVG 20010904//EN"
 "http://www.w3.org/TR/2001/REC-SVG-20010904/DTD/svg10.dtd">
<svg version="1.0" xmlns="http://www.w3.org/2000/svg"
 width="512.000000pt" height="512.000000pt" viewBox="0 0 512.000000 512.000000"
 preserveAspectRatio="xMidYMid meet">
<metadata>
Created by potrace 1.11, written by Peter Selinger 2001-2013
</metadata>
<g transform="translate(0.000000,512.000000) scale(0.100000,-0.100000)"
fill="#000000" stroke="none">
<path d="M2457 4914 c-1 -1 -44 -4 -94 -8 -187 -13 -432 -68 -632 -143 -605
-225 -1103 -709 -1348 -1308 -37 -89 -105 -298 -117 -357 -3 -13 -10 -48 -16
-78 -6 -30 -13 -73 -16 -95 -3 -22 -7 -49 -9 -61 -18 -84 -24 -334 -12 -489 8
-99 13 -139 33 -255 12 -66 47 -203 71 -275 80 -247 164 -414 330 -655 23 -33
114 -151 133 -171 167 -178 259 -261 420 -380 68 -51 199 -129 306 -182 596
-300 1283 -333 1907 -90 49 18 96 38 105 43 9 4 60 30 112 56 497 248 911 701
1118 1224 31 79 88 251 96 291 3 13 14 67 24 119 102 485 36 1012 -184 1475
-55 117 -175 317 -228 382 -8 10 -44 54 -79 98 -244 303 -620 572 -991 710
-105 39 -315 99 -381 109 -22 3 -66 10 -97 15 -84 14 -207 24 -335 25 -63 1
-115 1 -116 0z m174 -543 c16 -16 29 -40 30 -53 0 -13 1 -347 1 -744 l1 -721
51 -31 c79 -47 118 -99 141 -189 59 -225 -155 -431 -379 -366 l-49 15 -317
-317 c-308 -307 -319 -317 -362 -322 -40 -5 -47 -2 -77 28 -30 30 -33 37 -28
77 5 43 15 54 321 361 l317 317 -16 60 c-34 133 22 267 143 339 l50 30 0 720
c0 396 1 730 1 743 1 13 14 37 30 53 23 23 38 29 71 29 33 0 48 -6 71 -29z"/>
</g>
</svg>
