<svg xmlns="http://www.w3.org/2000/svg" viewBox="0 0 581.87541 683.10498"><title>Asset 2</title><path d="M342.36914,87.40234h1.2207q4.39454,0,.73243,47.36329,17.81835,46.63476,15.625,56.88476l-.97657,9.76563q-2.68946,7.5703-2.68554,8.54492-1.22462,27.59179,8.54492,39.79492,2.4375,4.15429,3.418,4.15039,12.20508-16.84571,13.42773-22.46094l1.46485-6.34765q23.4375-22.70508,28.56445-38.81836,1.21875-5.85937,36.13281-13.916,3.66211-1.95117,18.31055-15.13672,22.94531-6.0996,24.41406-13.916a7.65628,7.65628,0,0,1-.24414-3.17383q.73242-3.16992,8.78906-6.34766,6.5918,2.92969,7.32422,6.34766a26.11622,26.11622,0,0,1,11.47461-3.17383q5.85938,6.10547,12.207,7.56836,2.19727-9.76172,9.52149-9.76562h1.2207q-.97851,4.39452,9.76562,9.76562,9.76173-15.13476,19.28711-15.13672h.97657l-.48829,2.19727q-.49218,2.92968-16.11328,20.26367-12.45117,18.07031-18.0664,30.27344h.97656q21.48047-15.13477,29.05273-15.13672l.48829,2.19726-.48829,2.19727q-15.62694,11.96484-35.88867,37.59766-34.66992,29.543-41.99219,46.14257l-49.80468,47.11914q-10.98633,0-26.36719,22.70508a61.38352,61.38352,0,0,0-20.50781,21.48438q-3.17578,3.17577-3.90625,3.17383,4.88085,32.71875,3.90625,36.62109a144.09148,144.09148,0,0,1-4.39453,16.11328q-1.957,8.54883,8.54492,20.26367-2.44337,10.9856,9.0332,18.31006.24024,24.65625,2.19727,35.40039,2.68359,11.959,1.709,17.334l-.48828,1.95312q-.24609,1.46484-4.63867,11.96289,4.63476,21.48047,15.86914,21.48438.97266,20.01563,3.17383,24.6582,2.19726,0,1.2207,4.39453-.24609,1.21875-6.83594,11.71875.97266,16.35351-.24414,21.48438a2.38834,2.38834,0,0,1-2.4414,2.19726h-3.418l-2.68555-2.19726a11.30325,11.30325,0,0,1-3.418.97656q-.97851,42.48046,3.66211,59.082L408.043,653.564l-2.44141,1.22071H403.4043q-7.32423-25.88087-11.96289-49.56055-3.42187-3.17578-5.3711-14.89258-1.71093,0-3.90625-2.19726l-.24414.97656q0,10.49413-.24414,11.96289a7.80531,7.80531,0,0,0-1.95312,3.17383h-1.95313q-3.6621,0-4.39453-35.40039-4.64062-7.57032-7.08008-7.56836-.24609,1.46484-3.90625,3.17383-3.42187-8.05665-13.18359-48.33985a52.33481,52.33481,0,0,0-11.23047-12.93945q-10.74609-36.86719-11.96289-45.166-11.47851-6.34569-12.45117-22.46093a10.5014,10.5014,0,0,0-4.88282-7.56836,944.14163,944.14163,0,0,1-87.1582,102.05078q-18.31055,5.61328-38.57422,35.40039Q171.22656,585.20458,170.25,589.11084l-1.95312,9.76562q-1.46485,6.59181-24.65821,30.0293l-19.53125,25.87891q-4.39454,3.16992-13.67187,4.15039-11.47266,9.76171-27.832,34.42383-4.63477,4.39452-9.52149,4.39453A94.41038,94.41038,0,0,1,78.209,683.59326H74.05859q-2.68359,12.45117-58.10546,55.9082a33.19066,33.19066,0,0,1-13.1836,10.74219H1.793q-2.19726,0-1.709-2.19726,13.42969-18.07032,39.79493-40.77149,32.22656-40.77539,36.13281-59.082,2.44337-10.98633,17.08984-24.6582.97852-4.39454,16.35742-31.25h-2.19726l-3.66211,2.19726h-2.19727l.24414-.97656q2.68945-12.94336,52.002-72.998,8.78906-15.62694,29.78515-38.81836,8.54883-9.28125,9.76563-14.89257l.97656-9.76563q25.875-30.51562,26.36719-33.20312,1.21875-5.12622,31.98242-34.42334,1.21875-5.61328,45.89844-53.71094a19.72456,19.72456,0,0,0,3.418-6.5918q-4.15429-11.22656-9.27735-37.59765Q279.38086,276.123,281.334,259.27734q-5.61913-1.95117-3.6621-18.0664-12.94336-25.63477-10.98633-34.42383,5.61327-11.71875,11.96289-36.62109,17.332-34.66407,23.68164-40.77149,7.56445.97852,8.54492.97656,4.14844,0,10.00977-17.08984l2.4414-.97656h.97656q2.4375,0,4.39454,9.52148h.97656a92.11636,92.11636,0,0,0,5.61523-16.11328l2.68555-11.71875Q339.92578,87.40235,342.36914,87.40234Zm-264.89258,604.98-.24414.97657h2.19727l.24414-.97657Zm31.25-106.44531-.48828,2.19727h.97656l.48829-2.19727ZM308.18945,91.79688q6.59179,0,3.418,13.916-4.64062,3.17578-8.05664,3.17383-3.42187,0-6.83594-8.54492Q298.666,91.79882,308.18945,91.79688Zm26.85547-24.65821h3.17383q.97266,0,2.19727,4.15039-1.957,4.39453-8.30079,4.39453l-.73242-2.19726.97657-4.15039A2.73312,2.73312,0,0,1,335.04492,67.13867ZM356.5293,192.87109l-.73242,4.15039h.97656l.97656-4.15039ZM437.584,296.875h.97657q1.70508,0,3.90625-3.17383l.24414-.97656Q441.2461,292.72461,437.584,296.875Zm98.14454-188.96484h2.19726q9.2754,1.2246,7.56836,9.76562l-.24414.97656q-6.83788,7.57032-10.00977,7.56836-3.6621,0-6.10351-7.56836Q535.48243,109.13087,535.72852,107.91016Zm39.0625-2.19727h4.39453q2.19726.24609,1.709,2.19727l-1.2207,5.37109-5.61524.97656h-1.95312v-5.37109l.24414-.97656Q573.082,105.71289,574.791,105.71289Zm.48828,38.81836h5.37109q-.24609,1.46484,1.2207,4.15039l-.24414,1.2207q-2.92968,4.15431-6.34765,4.15039-3.90821-.97264-2.92969-6.34765Q574.54687,147.70508,575.2793,144.53125Z" transform="translate(0.00432 -67.13867)" style="fill:#4d4d4d"/></svg>