<?xml version="1.0" encoding="iso-8859-1"?>
<!-- Generator: Adobe Illustrator 19.0.0, SVG Export Plug-In . SVG Version: 6.00 Build 0)  -->
<svg version="1.1" id="Capa_1" xmlns="http://www.w3.org/2000/svg" xmlns:xlink="http://www.w3.org/1999/xlink" x="0px" y="0px"
	 viewBox="0 0 201.386 201.386" style="enable-background:new 0 0 201.386 201.386;" xml:space="preserve">
<g>
	<g>
		<path d="M165.649,51.201l-26.984-3.388c-0.201-0.027-0.403-0.032-0.601-0.022c-2.156-2.113-5.108-3.418-8.358-3.418
			c-5.354,0-9.897,3.54-11.411,8.402c-0.34,0.529-0.536,1.162-0.536,1.838v44.834c0,6.833,4.094,12.797,10.24,15.321v25.178
			c0,1.884,1.529,3.413,3.413,3.413h44.373c1.884,0,3.413-1.529,3.413-3.413v-25.178c6.146-2.526,10.24-8.487,10.24-15.321V75.212
			C189.44,62.045,178.788,51.319,165.649,51.201z M182.613,99.449c0,4.572-3.121,8.48-7.59,9.506
			c-1.551,0.355-2.65,1.734-2.65,3.326v24.252h-37.547v-24.252c0-1.591-1.099-2.971-2.65-3.326c-4.468-1.024-7.59-4.932-7.59-9.506
			V56.319c0-2.823,2.297-5.12,5.12-5.12c2.823,0,5.12,2.297,5.12,5.12c0,1.884,1.529,3.413,3.413,3.413s3.413-1.529,3.413-3.413
			v-1.251l23.349,2.932c0.14,0.019,0.283,0.027,0.425,0.027c9.477,0,17.186,7.709,17.186,17.186V99.449z"/>
	</g>
</g>
<g>
	<g>
		<path d="M138.24,47.786c-1.884,0-3.413,1.529-3.413,3.413v17.067c0,1.884,1.529,3.413,3.413,3.413s3.413-1.529,3.413-3.413V51.199
			C141.653,49.315,140.124,47.786,138.24,47.786z"/>
	</g>
</g>
<g>
	<g>
		<path d="M155.306,54.613c-1.884,0-3.413,1.529-3.413,3.413v10.24c0,1.884,1.529,3.413,3.413,3.413s3.413-1.529,3.413-3.413v-10.24
			C158.72,56.142,157.191,54.613,155.306,54.613z"/>
	</g>
</g>
<g>
	<g>
		<path d="M168.96,54.613c-1.884,0-3.413,1.529-3.413,3.413v10.24c0,1.884,1.529,3.413,3.413,3.413s3.413-1.529,3.413-3.413v-10.24
			C172.373,56.142,170.844,54.613,168.96,54.613z"/>
	</g>
</g>
<g>
	<g>
		<path d="M182.613,136.533H128c-1.884,0-3.413,1.529-3.413,3.413v58.027c0,1.884,1.529,3.413,3.413,3.413h54.613
			c1.884,0,3.413-1.529,3.413-3.413v-58.027C186.026,138.062,184.497,136.533,182.613,136.533z M179.2,194.559h-47.787v-51.2H179.2
			V194.559z"/>
	</g>
</g>
<g>
	<g>
		<path d="M83.091,39.121c-1.516-4.862-6.057-8.402-11.411-8.402c-3.25,0-6.202,1.306-8.358,3.418
			c-0.198-0.012-0.399-0.005-0.601,0.022l-26.984,3.388c-13.14,0.118-23.791,10.844-23.791,24.011v24.235
			c0,6.833,4.094,12.797,10.24,15.321v25.178c0,1.884,1.529,3.413,3.413,3.413h44.373c1.884,0,3.413-1.529,3.413-3.413v-25.177
			c6.146-2.526,10.24-8.487,10.24-15.321V40.959C83.626,40.284,83.43,39.652,83.091,39.121z M76.8,85.795
			c0,4.572-3.122,8.48-7.59,9.506c-1.551,0.355-2.65,1.734-2.65,3.326v24.252H29.013V98.628c0-1.591-1.099-2.971-2.65-3.326
			c-4.468-1.024-7.59-4.932-7.59-9.506V61.561c0-9.475,7.709-17.186,17.186-17.186c0.142,0,0.283-0.009,0.425-0.027l23.349-2.932
			v1.251c0,1.884,1.529,3.413,3.413,3.413c1.884,0,3.413-1.529,3.413-3.413c0-2.823,2.297-5.12,5.12-5.12
			c2.823,0,5.12,2.297,5.12,5.12V85.795z"/>
	</g>
</g>
<g>
	<g>
		<path d="M63.146,34.133c-1.884,0-3.413,1.529-3.413,3.413v17.067c0,1.884,1.529,3.413,3.413,3.413
			c1.884,0,3.413-1.529,3.413-3.413V37.546C66.56,35.662,65.031,34.133,63.146,34.133z"/>
	</g>
</g>
<g>
	<g>
		<path d="M46.08,40.959c-1.884,0-3.413,1.529-3.413,3.413v10.24c0,1.884,1.529,3.413,3.413,3.413s3.413-1.529,3.413-3.413v-10.24
			C49.493,42.489,47.964,40.959,46.08,40.959z"/>
	</g>
</g>
<g>
	<g>
		<path d="M32.426,40.959c-1.884,0-3.413,1.529-3.413,3.413v10.24c0,1.884,1.529,3.413,3.413,3.413s3.413-1.529,3.413-3.413v-10.24
			C35.84,42.489,34.311,40.959,32.426,40.959z"/>
	</g>
</g>
<g>
	<g>
		<path d="M73.386,122.879H18.773c-1.884,0-3.413,1.529-3.413,3.413v71.68c0,1.884,1.529,3.413,3.413,3.413h54.613
			c1.884,0,3.413-1.529,3.413-3.413v-71.68C76.8,124.409,75.271,122.879,73.386,122.879z M69.973,194.559H22.186v-64.853h47.787
			V194.559z"/>
	</g>
</g>
<g>
	<g>
		<path d="M95.759,0.573c-1.567-1.044-3.688-0.621-4.733,0.947L84.2,11.76c-1.044,1.568-0.621,3.688,0.947,4.733
			c0.58,0.389,1.239,0.573,1.889,0.573c1.104,0,2.186-0.534,2.843-1.521l6.827-10.24C97.751,3.737,97.328,1.617,95.759,0.573z"/>
	</g>
</g>
<g>
	<g>
		<path d="M120.813,8.714c-0.846-1.69-2.896-2.371-4.581-1.527l-20.48,10.24c-1.686,0.845-2.371,2.894-1.527,4.581
			c0.599,1.196,1.806,1.886,3.057,1.886c0.514,0,1.034-0.114,1.524-0.358l20.48-10.24C120.972,12.45,121.656,10.4,120.813,8.714z"/>
	</g>
</g>
<g>
	<g>
		<path d="M114.346,30.719h-13.653c-1.884,0-3.413,1.529-3.413,3.413s1.529,3.413,3.413,3.413h13.653
			c1.884,0,3.413-1.529,3.413-3.413S116.231,30.719,114.346,30.719z"/>
	</g>
</g>
<g>
</g>
<g>
</g>
<g>
</g>
<g>
</g>
<g>
</g>
<g>
</g>
<g>
</g>
<g>
</g>
<g>
</g>
<g>
</g>
<g>
</g>
<g>
</g>
<g>
</g>
<g>
</g>
<g>
</g>
</svg>
