<svg width="1170" height="660" viewBox="0 0 1170 660" fill="none" xmlns="http://www.w3.org/2000/svg">
<path d="M737.733 244.635V115.346L724.344 128.768V244.635L747.393 267.911L724.344 291.186H737.733L760.951 267.911L737.733 244.635Z" fill="#FF8AE2"/>
<path d="M1083.3 105.153H1069.91L1092.96 128.428V167.164V190.439V275.556L1077.53 291.186H1090.92L1106.52 275.556V190.439V167.164V128.428L1083.3 105.153Z" fill="#FF8AE2"/>
<path d="M505.549 43.1416H493.177L516.396 66.417V105.153V128.428V174.809V275.556L500.804 291.186H513.345L528.768 275.556V66.417L505.549 43.1416Z" fill="#FF8AE2"/>
<path d="M292.009 244.635V115.007L278.62 128.428V244.635L301.838 267.911L278.62 291.186H292.009L315.227 267.911L292.009 244.635Z" fill="#FF8AE2"/>
<path d="M657.062 81.8775H643.673V105.153H657.062V81.8775Z" fill="#FF8AE2"/>
<path d="M643.673 260.096L657.062 246.674V136.074L688.076 105.153H674.687L643.673 136.074V260.096Z" fill="#FF8AE2"/>
<path d="M659.265 244.636L666.891 252.451L643.673 275.556L628.251 291.186H641.64L657.062 275.556L680.28 252.451L672.654 244.636H659.265Z" fill="#FF8AE2"/>
<path d="M863.824 244.635V128.428V105.153V66.417L840.606 43.1416H827.217L850.435 66.417V105.153V128.428V244.635L873.484 267.911L850.435 291.186H863.824L887.042 267.911L863.824 244.635Z" fill="#FF8AE2"/>
<path d="M887.042 105.153H873.484L904.498 136.073V236.82L880.263 261.115L887.042 267.911L917.887 236.82V136.073L887.042 105.153Z" fill="#FF8AE2"/>
<path d="M110.668 95.6387V152.213L124.057 138.792V95.6387V55.0342L99.6522 30.5695H99.4827H86.2635L110.668 55.0342V95.6387Z" fill="#FF8AE2"/>
<path d="M183.543 63.1891V95.6388V217.792V242.257L199.813 258.567L206.592 251.771L196.932 242.257V217.792V95.6388V63.1891V55.0342L172.527 30.5695H159.139L183.543 55.0342V63.1891Z" fill="#FF8AE2"/>
<path d="M151.003 146.947L110.668 187.381V274.877L94.3981 291.186H107.787L124.057 274.877V187.381L151.003 160.368V146.947Z" fill="#FF8AE2"/>
<path d="M69.9936 63.3591L45.5889 87.6539H59.1471L76.7727 69.985L69.9936 63.3591Z" fill="#FF8AE2"/>
<path d="M229.472 242.257H216.083L224.218 250.412L207.948 266.722L199.814 274.877L183.544 291.186H196.932L213.202 274.877L221.337 266.722L237.607 250.412L229.472 242.257Z" fill="#FF8AE2"/>
<path d="M760.951 105.153H747.393L778.407 136.073V236.82L754.172 261.115L760.951 267.911L791.796 236.82V136.073L760.951 105.153Z" fill="#FF8AE2"/>
<path d="M1024.32 135.903L970.425 189.93V244.635L985.847 260.096L992.627 253.47L983.814 244.635V189.93L1037.71 135.903L1007.03 105.153H993.644L1024.32 135.903Z" fill="#FF8AE2"/>
<path d="M1009.07 236.82L1016.86 244.635L993.643 267.911L985.847 275.556L970.425 291.186H983.814L999.236 275.556L1007.03 267.911L1030.25 244.635L1022.45 236.82H1009.07Z" fill="#FF8AE2"/>
<path d="M970.425 174.469L983.814 161.048V141.85L970.425 128.428V174.469Z" fill="#FF8AE2"/>
<path d="M346.072 252.45V136.073L315.227 105.153H301.838L332.683 136.073V252.45L348.106 267.911L325.057 291.186H338.445L361.494 267.911L346.072 252.45Z" fill="#FF8AE2"/>
<path d="M425.895 260.096L432.505 253.47L423.862 244.636V141.51L410.642 128.428H410.473V244.636L425.895 260.096Z" fill="#FF8AE2"/>
<path d="M462.502 236.821H449.114L456.74 244.636L433.691 267.911L425.895 275.556L410.473 291.187H423.862L439.284 275.556L447.08 267.911L470.129 244.636L462.502 236.821Z" fill="#FF8AE2"/>
<path d="M433.691 151.364H447.08L470.129 128.088L447.08 104.813H433.691L456.74 128.088L433.691 151.364Z" fill="#FF8AE2"/>
<path d="M553.004 105.153H539.445L562.664 128.428L539.445 151.704H553.004L576.052 128.428L553.004 105.153Z" fill="#FF8AE2"/>
<path d="M1129.56 105.153H1116.18L1139.39 128.428L1116.18 151.704H1129.56L1152.78 128.428L1129.56 105.153Z" fill="#FF8AE2"/>
<path d="M553.004 151.704H539.445L562.664 174.809V275.556L547.241 291.186H560.63L576.052 275.556V174.809L553.004 151.704Z" fill="#FF8AE2"/>
<path d="M674.688 105.153H643.674V81.8773L589.611 136.073H612.829V275.556L628.251 291.186L643.674 275.556L666.892 252.45L659.266 244.635L643.674 260.096V136.073L674.688 105.153Z" fill="#9C4668"/>
<path d="M850.436 128.428V105.153V66.417L827.218 43.1416L803.999 66.417L819.422 81.8774V260.096L850.436 291.186L873.485 267.911L850.436 244.635V128.428Z" fill="#9C4668"/>
<path d="M850.435 128.428L873.484 151.704V267.911L904.499 236.82V136.073L873.484 105.153L850.435 128.428Z" fill="#9C4668"/>
<path d="M199.813 258.567L183.544 242.257V217.792V95.6389V63.1892V55.0343L159.139 30.5697L134.904 55.0343L151.004 71.1742V111.779L110.669 152.213V95.6389V55.0343L86.2639 30.5697H86.0944L37.2851 79.3291L45.5895 87.6539L69.9941 63.3591L78.129 71.514V274.877L94.3988 291.186L110.669 274.877V187.381L151.004 146.947V217.792V258.567L183.544 291.186L199.813 274.877L207.948 266.722L224.218 250.412L216.083 242.257L199.813 258.567Z" fill="#9C4668"/>
<path d="M724.344 128.428L693.33 159.349V260.096L724.344 291.186L747.393 267.911L724.344 244.635V128.428Z" fill="#9C4668"/>
<path d="M724.345 128.428L747.394 151.704V267.911L778.408 236.82V136.073L747.394 105.153L724.345 128.428Z" fill="#9C4668"/>
<path d="M1024.32 135.903L993.644 105.153L970.425 128.428L993.474 151.364L970.425 174.469V128.428L939.411 159.349V260.096L970.425 291.186L985.848 275.556L993.644 267.911L1016.86 244.635L1009.07 236.82L985.848 260.096L970.425 244.635V189.93L1024.32 135.903Z" fill="#9C4668"/>
<path d="M278.62 128.428L247.606 159.349V260.096L278.62 291.186L301.838 267.911L278.62 244.635V128.428Z" fill="#9C4668"/>
<path d="M332.683 136.073L301.838 105.153L278.62 128.428L301.838 151.704V267.911L325.057 291.186L348.106 267.911L332.683 252.45V136.073Z" fill="#9C4668"/>
<path d="M425.896 260.096L410.474 244.636V128.428L379.459 159.349V260.096L410.474 291.186L425.896 275.556L433.692 267.911L456.741 244.636L449.114 236.82L425.896 260.096Z" fill="#9C4668"/>
<path d="M433.766 104.892L410.49 128.17L433.766 151.447L457.043 128.17L433.766 104.892Z" fill="#9C4668"/>
<path d="M539.651 105.067L516.375 128.345L539.651 151.622L562.928 128.345L539.651 105.067Z" fill="#9C4668"/>
<path d="M531.819 190.439V275.556L547.241 291.186L562.664 275.556V174.809L539.445 151.704L516.397 174.809L531.819 190.439Z" fill="#9C4668"/>
<path d="M516.396 105.153V66.417L493.178 43.1416L469.959 66.417L485.382 81.8774V275.556L500.804 291.186L516.396 275.556V174.809V128.428V105.153Z" fill="#9C4668"/>
<path d="M1116.37 105.058L1093.1 128.335L1116.37 151.613L1139.65 128.336L1116.37 105.058Z" fill="#9C4668"/>
<path d="M1046.69 128.428L1062.11 143.888V167.164V190.439V275.556L1077.53 291.186L1092.96 275.556V190.439V167.164V128.428L1069.91 105.153L1046.69 128.428Z" fill="#9C4668"/>
<path d="M711.634 45.3504V36.1762H715.193C718.413 36.1762 720.955 38.7246 720.955 41.9525V66.9269C717.396 68.1162 714.854 71.514 714.854 75.5915C714.854 78.1399 715.871 80.3485 717.396 82.0474C719.091 83.7464 721.294 84.7657 724.006 84.7657C729.09 84.7657 733.157 80.6883 733.157 75.5915C733.157 71.8538 730.785 68.6258 727.565 67.0968V41.9525C727.565 38.5547 726.209 35.4966 723.836 33.1181C721.463 30.7396 718.413 29.3804 715.023 29.3804H711.464V20.2062L699.093 32.6084L711.634 45.3504ZM724.175 71.514C725.361 71.514 726.378 72.0237 727.226 72.7033C727.904 73.3829 728.412 74.5721 728.412 75.5915C728.412 76.7807 727.904 77.8001 727.226 78.4797C726.378 79.3291 725.361 79.6689 724.345 79.6689C721.972 79.6689 720.108 77.8001 720.108 75.4216C719.938 73.3829 721.802 71.514 724.175 71.514Z" fill="#9C4668"/>
<path d="M697.228 75.7614C697.228 72.0238 694.856 68.7958 691.636 67.2668V41.4429C694.856 40.0838 697.228 36.8558 697.228 32.9483C697.228 27.8515 693.161 23.774 688.077 23.774C682.992 23.774 678.925 27.8515 678.925 32.9483C678.925 35.3268 679.772 37.7053 681.467 39.4042C682.484 40.4236 683.67 41.1032 684.857 41.6128V67.0969C681.298 68.2861 678.755 71.684 678.755 75.7614C678.755 78.3098 679.772 80.5185 681.298 82.2174C682.992 83.9163 685.195 84.9357 687.907 84.9357C693.161 84.9357 697.228 80.6884 697.228 75.7614ZM688.077 37.1956C686.89 37.1956 685.873 36.6859 685.196 36.0063C684.348 35.1569 684.009 34.1375 684.009 33.1182C684.009 30.7397 685.873 28.8708 688.246 28.8708C689.432 28.8708 690.449 29.3805 691.297 30.0601C691.975 30.7396 692.483 31.9289 692.483 32.9483C692.314 35.3268 690.449 37.1956 688.077 37.1956ZM688.077 79.8389C685.704 79.8389 683.84 77.9701 683.84 75.5915C683.84 74.4023 684.348 73.3829 685.026 72.7034C685.873 71.8539 686.89 71.5141 687.907 71.5141C689.093 71.5141 690.11 72.0238 690.958 72.7034C691.636 73.3829 692.144 74.5722 692.144 75.5915C692.314 77.9701 690.449 79.8389 688.077 79.8389Z" fill="#9C4668"/>
<path d="M936.021 118.065C939.75 114.667 940.089 108.891 936.699 105.153C935.682 104.134 934.666 103.284 933.479 102.774V85.2754C939.919 93.6002 947.546 97.168 953.308 98.8669C953.647 100.396 954.325 101.755 955.342 102.944C957.036 104.813 959.24 105.833 961.612 106.002C963.985 106.172 966.358 105.323 968.222 103.624C971.95 100.226 972.289 94.4497 968.9 90.712C967.205 88.8432 965.002 87.8238 962.629 87.6539C960.426 87.484 958.392 88.1636 956.528 89.5228C956.358 89.6926 956.189 89.8625 956.02 90.0324C955.342 90.712 954.664 91.3916 954.325 92.2411C949.24 90.5421 942.461 86.8045 937.038 78.4797C940.089 75.0818 940.258 69.8151 937.038 66.2474C933.818 62.6796 928.395 62.1699 924.666 65.0581C924.497 65.228 924.327 65.3979 924.158 65.5678C920.43 68.9657 920.091 74.742 923.48 78.4797C924.497 79.6689 925.683 80.3485 927.039 80.8582V102.605C926.192 102.944 925.344 103.284 924.666 103.964C924.497 104.134 924.327 104.303 924.158 104.473C922.294 106.172 921.277 108.381 921.107 110.759C920.938 113.138 921.785 115.516 923.48 117.385C926.531 120.953 932.293 121.293 936.021 118.065ZM959.409 93.6002C960.256 92.9206 961.273 92.4109 962.46 92.5808C963.646 92.5808 964.663 93.0905 965.341 93.94C966.866 95.6389 966.696 98.3572 965.002 99.8863C965.002 99.8863 964.832 100.056 964.663 100.056C963.815 100.736 962.968 100.906 961.951 100.906C960.765 100.906 959.748 100.396 959.07 99.5465C958.392 98.697 957.884 97.6776 958.053 96.4884C958.053 95.469 958.562 94.4497 959.409 93.6002ZM927.378 69.3054C929.073 67.7764 931.784 67.9463 933.31 69.6452C934.835 71.3442 934.666 74.0625 932.971 75.5915L932.801 75.7614C931.106 77.1205 928.564 76.7808 927.209 75.2517C925.514 73.3829 925.683 70.8345 927.378 69.3054ZM925.853 110.929C925.853 109.74 926.361 108.721 927.209 108.041C928.903 106.512 931.615 106.682 933.14 108.381C934.666 110.08 934.496 112.798 932.801 114.327L932.632 114.497C930.937 115.856 928.395 115.516 927.039 113.987C926.192 113.138 925.683 111.949 925.853 110.929Z" fill="#9C4668"/>
<path d="M274.044 23.9437C274.044 23.2641 274.214 22.4147 274.553 21.7351H262.35V27.0018H274.553C274.044 26.1523 273.875 24.963 274.044 23.9437Z" fill="#9C4668"/>
<path d="M290.991 24.963C290.991 25.6425 290.822 26.492 290.483 27.1716H302.685V21.9049H290.652C290.822 22.7543 290.991 23.7737 290.991 24.963Z" fill="#9C4668"/>
<path d="M293.534 24.4535C293.534 24.6234 293.534 24.9632 293.534 25.1331C293.365 28.1911 292.009 30.9094 289.806 32.7783C287.602 34.817 284.721 35.6665 281.84 35.4966C275.739 35.1568 270.994 29.8901 271.333 23.7739C271.502 20.7158 272.858 17.9975 275.061 16.1287C277.264 14.09 280.145 13.2405 283.027 13.4104C289.128 13.5803 293.534 18.5072 293.534 24.4535ZM276.586 24.4535C276.586 27.5116 278.959 30.06 282.179 30.3998C283.704 30.5696 285.23 29.8901 286.416 28.8707C287.602 27.8513 288.28 26.3223 288.45 24.7933C288.619 21.5653 286.247 18.847 283.027 18.5072L283.196 15.9588L283.027 18.5072C281.501 18.3373 279.976 19.0169 278.79 20.0362C277.603 21.0556 276.925 22.5846 276.756 24.1137C276.586 24.1137 276.586 24.2836 276.586 24.4535Z" fill="#9C4668"/>
<path d="M1031.1 303.249C1031.1 302.569 1031.27 301.719 1031.61 301.04H1019.4V306.307H1031.61C1031.27 305.457 1031.1 304.268 1031.1 303.249Z" fill="#9C4668"/>
<path d="M1048.05 304.268C1048.05 304.948 1047.88 305.797 1047.54 306.477H1059.74V301.21H1047.71C1048.05 302.059 1048.21 303.079 1048.05 304.268Z" fill="#9C4668"/>
<path d="M1050.76 303.758C1050.76 303.928 1050.76 304.268 1050.76 304.438C1050.59 307.496 1049.23 310.214 1047.03 312.083C1044.83 313.952 1041.94 314.971 1039.06 314.801C1032.96 314.462 1028.22 309.195 1028.56 303.079C1028.73 300.021 1030.08 297.302 1032.28 295.434C1034.49 293.395 1037.37 292.545 1040.25 292.715C1046.18 293.055 1050.76 297.812 1050.76 303.758ZM1033.81 303.758C1033.81 306.816 1036.18 309.365 1039.4 309.705C1040.93 309.875 1042.45 309.195 1043.64 308.176C1044.83 307.156 1045.5 305.627 1045.67 304.098C1045.84 300.87 1043.47 298.152 1040.25 297.812L1040.42 295.264L1040.25 297.812C1038.72 297.642 1037.2 298.322 1036.01 299.341C1034.83 300.36 1034.15 301.89 1033.98 303.419C1033.81 303.588 1033.81 303.588 1033.81 303.758Z" fill="#9C4668"/>
<path d="M142.699 320.918C142.699 320.238 142.869 319.389 143.208 318.709H131.006V323.976H143.208C142.699 323.127 142.53 321.937 142.699 320.918Z" fill="#9C4668"/>
<path d="M159.647 321.937C159.647 322.617 159.477 323.466 159.138 324.146H171.341V318.879H159.308C159.477 319.729 159.647 320.748 159.647 321.937Z" fill="#9C4668"/>
<path d="M162.189 321.428C162.189 321.598 162.189 321.937 162.189 322.107C162.02 325.165 160.664 327.884 158.461 329.752C156.258 331.791 153.377 332.641 150.495 332.471C144.394 332.131 139.649 326.864 139.988 320.748C140.157 317.69 141.513 314.972 143.716 313.103C145.92 311.234 148.801 310.215 151.682 310.384C157.613 310.554 162.189 315.481 162.189 321.428ZM145.242 321.428C145.242 324.486 147.614 327.034 150.834 327.374C152.36 327.544 153.885 326.864 155.071 325.845C156.258 324.825 156.936 323.296 157.105 321.767C157.275 318.539 154.902 315.821 151.682 315.481L151.851 312.763L151.682 315.481C150.156 315.311 148.631 315.991 147.445 317.01C146.259 318.03 145.581 319.559 145.411 321.088C145.242 321.258 145.242 321.258 145.242 321.428Z" fill="#9C4668"/>
<path d="M576.222 76.1013C576.222 75.4217 576.391 74.5723 576.73 73.8927H564.528V79.1594H576.73C576.391 78.14 576.222 77.1207 576.222 76.1013Z" fill="#9C4668"/>
<path d="M593.169 77.1207C593.169 77.8003 592.999 78.6497 592.66 79.3293H604.863V73.8927H592.83C593.169 74.9121 593.338 75.9314 593.169 77.1207Z" fill="#9C4668"/>
<path d="M595.881 76.6111C595.881 76.781 595.881 77.1208 595.881 77.2906C595.711 80.3487 594.355 83.067 592.152 84.9359C589.949 86.9746 587.068 87.824 584.187 87.6542C578.086 87.3144 573.34 82.0477 573.679 75.9315C573.849 72.8734 575.204 70.1551 577.408 68.2863C579.611 66.2476 582.492 65.3981 585.373 65.568C591.305 65.7379 595.881 70.6648 595.881 76.6111ZM578.933 76.6111C578.933 79.6692 581.306 82.2176 584.526 82.5573C586.051 82.7272 587.576 82.0477 588.763 81.0283C589.949 80.0089 590.627 78.4799 590.796 76.9509C590.966 73.7229 588.593 71.0046 585.373 70.6648L585.542 68.1164L585.373 70.6648C583.848 70.4949 582.322 71.1745 581.136 72.1938C579.95 73.2132 579.272 74.7422 579.102 76.2713C578.933 76.2713 578.933 76.4412 578.933 76.6111Z" fill="#9C4668"/>
<path d="M407.253 77.4602C404.541 73.2129 398.779 72.0236 394.542 74.9118C392.508 76.271 391.153 78.3097 390.644 80.6882C390.136 83.0667 390.644 85.6151 392 87.6538C392.847 89.013 394.712 90.3721 396.237 90.7119V97.1679C396.237 99.0367 394.712 103.284 390.136 103.284H373.527V86.9743C374.713 86.4646 375.9 85.785 376.747 84.5958C380.137 80.8581 379.798 75.0817 376.069 71.6838C372.341 68.286 366.578 68.6258 363.189 72.3634C361.494 74.2322 360.816 76.6108 360.816 78.9893C360.816 81.3678 362.003 83.7463 363.867 85.2753C364.036 85.4452 364.206 85.6151 364.375 85.785C365.053 86.2947 365.9 86.8044 366.748 87.1442V108.891C365.392 109.4 364.206 110.25 363.189 111.269C359.799 115.007 360.138 120.783 363.867 124.181C364.036 124.351 364.206 124.521 364.375 124.691C368.104 127.579 373.527 127.069 376.747 123.501C379.798 119.934 379.798 114.497 376.747 111.269C376.239 110.759 375.9 110.42 375.561 110.08H389.966C398.779 110.08 402.677 102.604 402.677 97.5077V91.2216C403.185 91.0517 403.863 90.7119 404.372 90.3721C404.541 90.2022 404.711 90.0324 404.88 89.8625C406.575 88.5033 407.761 86.6345 408.27 84.4259C409.117 81.8775 408.609 79.4989 407.253 77.4602ZM365.9 78.6495C365.9 77.4602 366.239 76.4409 366.917 75.5914C368.443 73.8925 370.815 73.7226 372.51 75.0817C372.68 75.0817 372.68 75.2516 372.68 75.2516C374.374 76.7807 374.544 79.499 373.019 81.1979C371.493 82.8968 368.782 83.0667 367.087 81.5377C366.409 80.6882 365.9 79.6688 365.9 78.6495ZM373.357 119.934C371.832 121.633 369.29 121.802 367.426 120.273C365.731 118.744 365.562 116.026 367.087 114.327C368.612 112.628 370.985 112.458 372.68 113.817C372.849 113.817 372.849 113.987 372.849 113.987C374.713 115.516 374.883 118.235 373.357 119.934ZM403.694 83.4065C403.524 84.4259 402.846 85.4452 401.83 86.1248C400.982 86.8044 399.796 86.9743 398.609 86.8044C397.593 86.6345 396.576 85.9549 395.898 84.9355C395.22 84.0861 395.05 82.8968 395.22 81.7076C395.389 80.6882 395.898 79.8387 396.745 79.329C396.915 79.329 396.915 79.1592 397.084 79.1592C398.948 77.9699 401.66 78.4796 402.846 80.3484C403.694 81.1979 403.863 82.2172 403.694 83.4065Z" fill="#9C4668"/>
<path d="M95.7543 65.7375H92.5342V260.266H95.7543V65.7375Z" fill="#FF8AE2"/>
<path d="M169.646 65.7374H166.426V246.844H169.646V65.7374Z" fill="#FF8AE2"/>
<path d="M500.804 74.7419H497.584V267.741H500.804V74.7419Z" fill="#FF8AE2"/>
<path d="M835.352 76.9503H832.132V247.863H835.352V76.9503Z" fill="#FF8AE2"/>
<path d="M318.617 144.568H315.397V255.678H318.617V144.568Z" fill="#FF8AE2"/>
<path d="M629.438 144.568H626.218V255.678H629.438V144.568Z" fill="#FF8AE2"/>
<path d="M1078.04 139.131H1074.82V260.945H1078.04V139.131Z" fill="#FF8AE2"/>
<path d="M763.663 142.529H760.443V233.592H763.663V142.529Z" fill="#FF8AE2"/>
<path d="M888.567 144.568H885.347V235.631H888.567V144.568Z" fill="#FF8AE2"/>
<path d="M954.494 164.276H951.274V255.339H954.494V164.276Z" fill="#FF8AE2"/>
<path d="M710.956 163.256H707.736V254.319H710.956V163.256Z" fill="#FF8AE2"/>
<path d="M396.407 160.878H393.187V253.81H396.407V160.878Z" fill="#FF8AE2"/>
<path d="M264.215 162.916H260.995V252.96H264.215V162.916Z" fill="#FF8AE2"/>
<path d="M547.75 181.095H544.53V271.139H547.75V181.095Z" fill="#FF8AE2"/>
<path d="M95.7561 185.682L93.214 183.134L166.767 109.23L169.309 111.949L95.7561 185.682Z" fill="#FF8AE2"/>
<path d="M1053.3 239.369C1054.99 244.466 1058.72 248.203 1062.11 250.072V224.758C1053.98 233.253 1053.3 239.199 1053.3 239.369Z" fill="#FF8AE2"/>
<path d="M598.255 250.752C597.915 250.242 597.745 249.562 597.576 249.053C597.745 249.732 597.915 250.242 598.255 250.752Z" fill="#FF8AE2"/>
<path d="M612.659 219.491C594.356 233.932 598.254 250.752 598.254 250.752C601.135 256.868 607.236 260.436 612.829 262.475L612.659 219.491Z" fill="#FF8AE2"/>
<path d="M346.071 191.119V227.816C349.969 224.248 354.206 219.491 356.24 214.225C356.748 212.016 358.104 201.483 346.071 191.119Z" fill="#9C4668"/>
<path d="M234.556 342.664C234.556 342.664 246.419 348.101 243.538 379.022C242.182 392.613 249.47 405.185 249.47 405.185C249.47 405.185 227.607 399.919 224.557 383.439C222.184 371.037 232.691 358.634 234.556 342.664Z" fill="#93C2DB"/>
<path d="M212.693 67.6066C212.693 67.6066 238.115 47.899 226.252 12.731C226.252 12.731 211.677 17.8278 214.219 33.1182C216.93 50.1076 217.1 60.641 212.693 67.6066Z" fill="#93C2DB"/>
<path d="M1045.33 206.579C1045.33 206.579 1033.98 172.431 1067.03 146.947C1067.03 146.947 1076.35 159.859 1065.5 173.45C1054.65 187.042 1045.5 197.405 1045.33 206.579Z" fill="#93C2DB"/>
<path d="M592.322 203.861C592.322 203.861 580.12 171.921 603.508 158.33C603.508 158.33 606.219 164.276 605.033 174.13C603.677 184.493 596.898 186.022 592.322 203.861Z" fill="#93C2DB"/>
<path d="M409.795 71.1745C409.795 71.1745 418.099 49.2582 437.759 55.2045C437.759 55.0346 432.505 75.2519 409.795 71.1745Z" fill="#93C2DB"/>
<path d="M386.576 64.7185C386.576 64.7185 371.493 48.5786 387.424 32.4387C387.593 32.4387 401.321 45.3506 386.576 64.7185Z" fill="#93C2DB"/>
<path d="M356.749 71.1744C356.749 71.1744 334.717 74.7421 327.429 57.9227C327.26 57.9227 348.105 50.6173 356.749 71.1744Z" fill="#93C2DB"/>
<path d="M705.703 329.582C705.703 329.582 714.007 307.666 733.666 313.612C733.666 313.612 728.413 333.83 705.703 329.582Z" fill="#93C2DB"/>
<path d="M682.484 323.296C682.484 323.296 667.4 307.157 683.331 291.017C683.331 291.017 697.228 303.929 682.484 323.296Z" fill="#93C2DB"/>
<path d="M652.656 329.752C652.656 329.752 630.624 333.32 623.337 316.501C623.167 316.331 644.013 309.025 652.656 329.752Z" fill="#93C2DB"/>
<path d="M931.615 50.7872C931.615 50.7872 923.311 33.1183 937.546 19.0171C937.377 19.0171 949.071 33.9678 931.615 50.7872Z" fill="#93C2DB"/>
<path d="M919.243 53.3356C919.243 53.3356 899.753 52.3163 894.16 32.9484C894.16 32.9484 912.803 29.8903 919.243 53.3356Z" fill="#93C2DB"/>
<path d="M461.825 622.139C461.825 622.139 443.013 631.993 430.132 616.193C430.132 616.193 447.928 605.15 461.825 622.139Z" fill="#93C2DB"/>
<path d="M470.638 634.541C470.638 634.541 469.79 656.458 450.3 659.686C450.3 659.516 448.775 638.789 470.638 634.541Z" fill="#93C2DB"/>
<path d="M717.057 549.255C717.057 549.255 734.683 540.93 748.749 555.201C748.749 555.031 733.835 566.754 717.057 549.255Z" fill="#93C2DB"/>
<path d="M714.515 536.853C714.515 536.853 715.532 517.315 734.852 511.708C734.682 511.708 737.902 530.397 714.515 536.853Z" fill="#93C2DB"/>
<path d="M1119.9 302.4C1119.9 302.4 1139.39 308.346 1138.21 329.073C1138.21 328.903 1116.17 326.694 1119.9 302.4Z" fill="#93C2DB"/>
<path d="M1123.46 291.866C1123.46 291.866 1136 276.576 1155.49 288.468C1155.49 288.468 1144.48 303.759 1123.46 291.866Z" fill="#93C2DB"/>
<path d="M30.6753 93.0907C30.6753 93.0907 21.0151 111.609 0 102.944C0 102.944 8.47385 82.5573 30.6753 93.0907Z" fill="#93C2DB"/>
<path d="M39.9966 99.8865C39.9966 99.8865 55.08 116.876 39.9966 132.166C39.8271 132.166 23.8963 115.177 39.9966 99.8865Z" fill="#93C2DB"/>
<path d="M675.366 25.3031C675.366 25.3031 656.384 21.2256 653.842 1.34812C653.673 1.34812 672.654 1.17822 675.366 25.3031Z" fill="#93C2DB"/>
<path d="M669.773 36.686C669.773 36.686 657.062 51.4668 638.42 44.3312C638.589 44.3312 647.402 27.5118 669.773 36.686Z" fill="#93C2DB"/>
<path d="M991.101 230.365C991.101 230.365 994.66 224.079 995.847 217.792C998.05 207.259 999.067 196.726 1011.78 196.216C1011.95 196.216 1012.29 225.098 991.101 230.365Z" fill="#93C2DB"/>
<path d="M915.854 374.265C915.854 374.265 928.056 354.727 949.41 352.518C975.679 349.97 984.492 334.679 989.407 325.505C989.407 325.505 953.308 324.995 939.242 332.811C924.836 340.796 920.769 349.8 915.854 374.265Z" fill="#93C2DB"/>
<path d="M528.768 269.44C529.785 257.887 529.785 229.175 526.904 216.433C523.175 199.444 519.786 199.954 517.582 200.803C515.379 201.652 515.888 204.031 514.701 205.39C513.346 206.749 511.312 208.448 508.6 203.012C505.889 197.405 503.855 181.435 498.771 175.829C493.517 170.052 490.127 179.396 487.755 181.605C485.382 183.814 485.043 185.343 478.433 180.925C471.824 176.508 453.859 167.334 446.233 173.28C438.776 179.227 446.911 186.702 449.283 188.231C454.198 191.459 469.959 196.386 471.146 199.104C473.18 204.031 462.502 204.541 460.469 208.108C458.435 211.676 461.147 215.414 466.061 216.603C470.976 217.792 484.196 215.244 489.788 216.603C495.212 217.962 494.025 219.831 492.161 221.02C491.144 221.7 481.653 226.967 483.179 231.554C484.873 236.99 490.297 238.689 503.516 237.5C513.515 236.651 520.972 243.786 523.175 249.562C525.378 255.509 528.768 269.44 528.768 269.44Z" fill="#93C2DB"/>
<path d="M461.994 179.227C460.977 178.547 459.96 178.037 459.621 177.867L457.757 179.057C457.757 179.057 458.096 179.397 460.808 180.926C503.855 206.749 521.65 234.102 529.107 253.81C529.107 252.111 529.107 250.412 529.107 248.713C520.803 229.005 502.33 203.352 461.994 179.227Z" fill="#FF8AE2"/>
<path d="M746.715 195.706C746.715 195.706 743.834 169.373 748.24 148.306C750.952 135.564 759.426 118.744 771.459 105.153C785.017 90.0324 789.762 87.484 792.813 87.484C794.169 87.484 793.321 89.5227 792.813 91.5615C791.457 96.4884 790.271 100.226 788.745 107.022C785.864 120.783 788.745 126.22 784.509 133.185C782.136 137.263 767.9 142.53 771.628 147.626C773.832 150.515 785.525 138.792 788.745 142.699C791.965 146.437 785.695 163.936 777.221 169.203C752.986 183.984 746.715 195.706 746.715 195.706Z" fill="#93C2DB"/>
<path d="M841.792 365.94V352.518H765.866V375.284H779.594V389.555H765.866H765.527V403.656H751.8H793.491V389.555H855.18V365.94H841.792Z" fill="#93C2DB"/>
<path d="M512.329 410.622H498.262V378.172H477.078V492.85H490.805V478.749H512.329V465.497V438.144H537.92V427.441H558.088V410.622H512.329Z" fill="#93C2DB"/>
<path d="M702.821 462.269H688.754V476.37H702.821V462.269Z" fill="#93C2DB"/>
<path d="M567.747 465.497H553.681V479.598H567.747V465.497Z" fill="#93C2DB"/>
<path d="M581.814 479.598H567.748V493.699H581.814V479.598Z" fill="#93C2DB"/>
<path d="M674.687 504.743V490.472H688.754V476.371H676.382V445.62H660.112V476.371H620.624V489.452H607.405V504.743H626.217H674.687Z" fill="#93C2DB"/>
<path d="M635.369 366.789H621.302V380.89H635.369V366.789Z" fill="#93C2DB"/>
<path d="M649.435 352.518H635.369V366.619H649.435V352.518Z" fill="#93C2DB"/>
<path d="M450.47 367.638H430.472V378.342H450.47V367.638Z" fill="#93C2DB"/>
<path d="M387.085 384.288H373.019V370.187H358.952V384.288H373.019V410.791V438.144H435.895V410.791H387.085V384.288ZM401.321 423.873V437.974H387.255V423.873H401.321Z" fill="#93C2DB"/>
<path d="M756.413 469.341V457.448H744.55V469.341H756.413Z" fill="#93C2DB"/>
<path d="M353.021 329.582H340.31V341.815H353.021V329.582Z" fill="#93C2DB"/>
<path d="M550.292 38.062V25.6598L537.92 25.6598V38.062H550.292Z" fill="#93C2DB"/>
<path d="M782.114 54.0326V41.6304H769.742V54.0326H782.114Z" fill="#93C2DB"/>
<path d="M1170 226.063V213.661H1157.63V226.063H1170Z" fill="#93C2DB"/>
<path d="M742.544 614.176H754.916V601.774H742.544V614.176Z" fill="#93C2DB"/>
<path d="M535.137 659.399H547.509V646.997H535.137V659.399Z" fill="#93C2DB"/>
<path d="M799.121 295.447V283.554H787.258V295.447H799.121Z" fill="#93C2DB"/>
<path d="M919.588 314.803V302.91H907.725V314.803H919.588Z" fill="#93C2DB"/>
<path d="M459.922 304.159H471.785V292.266H459.922V304.159Z" fill="#93C2DB"/>
<path d="M441.069 509.118V497.226H429.206V509.118H441.069Z" fill="#93C2DB"/>
<path d="M793.491 389.555V403.656H775.526V504.743H797.219V491.491H810.439V389.555H793.491Z" fill="#9C4668"/>
<path d="M649.436 352.518V366.789H635.369V380.89H621.303H607.236V431.349V417.417H621.472V424.213H639.098V417.417V389.555H686.043V378.342H698.415V352.518H649.436Z" fill="#9C4668"/>
<path d="M471.854 316.12H483.718V304.227H471.854V316.12Z" fill="#FF8AE2"/>
<path d="M553.342 365.26V352.518H504.533V341.815H469.62V378.172H498.262V410.622H512.329V387.346H526.734V365.26H553.342Z" fill="#9C4668"/>
<path d="M373.019 452.246V438.144V410.622V384.288H358.952V370.187H373.019V355.916H387.085V352.518V341.985H353.021V356.426V357.955V496.928H387.085V452.246H373.019Z" fill="#9C4668"/>
<path d="M353.021 496.927H340.31V509.16H353.021V496.927Z" fill="#9C4668"/>
<path d="M854.842 352.518H841.622V365.77H854.842V352.518Z" fill="#9C4668"/>
<path d="M868.061 365.94H854.841V389.555H868.061V365.94Z" fill="#9C4668"/>
<path d="M868.061 339.266H854.841V352.518H868.061V339.266Z" fill="#9C4668"/>
<path d="M688.754 490.471H674.688V504.573H688.754V490.471Z" fill="#9C4668"/>
<path d="M512.329 492.85H490.805V504.743H512.329V492.85Z" fill="#9C4668"/>
<path d="M12.372 144.628L12.372 132.225H0.00018692L0.00018692 144.628H12.372Z" fill="#FF8AE2"/>
<path d="M359.203 23.2737V10.8715L346.832 10.8715V23.2737H359.203Z" fill="#FF8AE2"/>
<path d="M1151.52 83.1469V70.7447H1139.15V83.1469H1151.52Z" fill="#FF8AE2"/>
<path d="M1041.03 361.1H1053.4V348.698H1041.03V361.1Z" fill="#FF8AE2"/>
<path d="M1053.12 349.148H1065.49V336.746H1053.12V349.148Z" fill="#FF8AE2"/>
<path d="M290.744 451.766H303.116V439.364H290.744V451.766Z" fill="#FF8AE2"/>
<path d="M427.423 570.659H439.795V558.257H427.423V570.659Z" fill="#FF8AE2"/>
<path d="M595.031 517.069H607.403V504.667H595.031V517.069Z" fill="#FF8AE2"/>
<path d="M809.885 327.391V315.499H798.021V327.391H809.885Z" fill="#FF8AE2"/>
<path d="M907.556 326.764V314.872H895.692V326.764H907.556Z" fill="#FF8AE2"/>
<path d="M584.526 352.518H553.342V365.26H526.734V387.346H570.29V372.735H584.526V352.518Z" fill="#FF8AE2"/>
<path d="M597.236 340.455H584.526V352.688H597.236V340.455Z" fill="#FF8AE2"/>
<path d="M988.559 33.4579H975.34V46.7096H988.559V33.4579Z" fill="#FF8AE2"/>
<path d="M823.658 504.743H810.438V517.994H823.658V504.743Z" fill="#FF8AE2"/>
<path d="M810.439 491.491H797.219V504.743H810.439V491.491Z" fill="#FF8AE2"/>
<path d="M702.821 462.269V436.105H693.5V424.213H621.472V417.417H607.236V431.518H621.303V445.619H660.113H667.57H676.383V476.37H688.754V462.269H702.821Z" fill="#FF8AE2"/>
<path d="M635.369 352.518H621.302V366.619H635.369V352.518Z" fill="#FF8AE2"/>
<path d="M621.302 366.789H607.236V380.89H621.302V366.789Z" fill="#FF8AE2"/>
<path d="M557.918 427.441H537.919V438.144H557.918V427.441Z" fill="#FF8AE2"/>
<path d="M340.31 509.16H327.091V522.412H340.31V509.16Z" fill="#FF8AE2"/>
<path d="M401.151 423.873H387.085V437.974H401.151V423.873Z" fill="#FF8AE2"/>
<path d="M387.085 438.144H373.019V452.245H387.085V438.144Z" fill="#FF8AE2"/>
<path d="M416.405 352.518V341.815H401.321H387.085V355.916H373.019V384.288H387.085V378.342H430.471V367.639H450.639V352.518H416.405Z" fill="#FF8AE2"/>
<path d="M793.661 361.183H779.594V375.284H793.661V361.183Z" fill="#FF8AE2"/>
<path d="M765.866 375.284V352.518H719.599V389.555H751.461V403.656H765.527V389.555H765.866H779.594V375.284H765.866Z" fill="#FF8AE2"/>
<path d="M567.748 493.699V479.598H553.681V465.497H512.329V478.749H490.805V492.85H512.329V496.927V504.743H581.984V493.699H567.748Z" fill="#FF8AE2"/>
<path d="M702.821 476.37H688.754V490.472H702.821V476.37Z" fill="#9C4668"/>
<path d="M769.572 66.5274V54.1252H757.2V66.5274H769.572Z" fill="#9C4668"/>
<path d="M58.816 180.979V168.577H46.4442V180.979H58.816Z" fill="#9C4668"/>
<path d="M387.163 309.959V297.557H374.791V309.959H387.163Z" fill="#9C4668"/>
<path d="M248.895 306.094V293.692H236.523V306.094H248.895Z" fill="#9C4668"/>
<path d="M1157.63 238.558V226.156H1145.26V238.558H1157.63Z" fill="#9C4668"/>
<path d="M730.257 601.688H742.629V589.286H730.257V601.688Z" fill="#9C4668"/>
<path d="M855.311 454.387H867.683V441.985H855.311V454.387Z" fill="#9C4668"/>
<path d="M522.672 647.074H535.044V634.672H522.672V647.074Z" fill="#FF8AE2"/>
<path d="M744.38 481.132V469.239H732.517V481.132H744.38Z" fill="#9C4668"/>
<path d="M552.665 317.18H539.445V330.432H552.665V317.18Z" fill="#9C4668"/>
<path d="M429.206 521.08V509.187H417.342V521.08H429.206Z" fill="#9C4668"/>
<path d="M637.742 609.907L629.607 601.752L616.049 615.344H607.575V584.593L614.863 577.287L617.574 574.569L620.455 571.851L626.048 566.244V557.75V543.818L614.015 531.926L597.406 548.575L600.287 551.294L608.592 542.969L614.863 549.425V571.681L597.915 588.67L596.559 590.029V617.892H607.575H627.404H629.607L637.742 609.907Z" fill="#9C4668"/>
<path d="M626.047 557.75V566.244L620.455 571.851L617.574 574.569L614.862 577.287L607.574 584.593V615.343H612.15V584.593L619.438 577.287L621.98 574.569L624.861 571.851L630.454 566.244V557.75V543.818L618.421 531.926H614.015L626.047 543.818V557.75Z" fill="#FF8AE2"/>
<path d="M634.182 601.752H629.606L637.741 609.907L629.606 617.892H634.182L642.148 609.907L634.182 601.752Z" fill="#FF8AE2"/>
<path d="M610.795 545.347L608.591 542.969L600.287 551.293H604.693L610.795 545.347Z" fill="#FF8AE2"/>
<path d="M682.145 581.025V598.864H669.943V593.767V580.345H661.299V554.691H645.707V593.767H653.673V618.911H665.536H669.943H690.788V606.849V598.864V581.025H682.145Z" fill="#93C2DB"/>
<path d="M697.228 554.522V543.988H686.043V554.691H682.145V581.025H690.788V598.864V605.999H697.228V593.767H702.652V554.522H697.228Z" fill="#FF8AE2"/>
<path d="M689.432 532.435H662.993V538.891H653.672V554.691H661.299V580.345H669.942V554.691H686.042V543.988H689.432V532.435Z" fill="#9C4668"/>
<path d="M519.108 609.907L510.973 601.752L497.415 615.344H488.941V584.593L496.229 577.287L498.94 574.569L501.821 571.851L507.414 566.244V557.75V543.818L495.381 531.926L478.772 548.575L481.654 551.294L489.958 542.969L496.229 549.425V571.681L479.281 588.67L477.925 590.029V617.892H488.941H508.77H510.973L519.108 609.907Z" fill="#9C4668"/>
<path d="M507.413 557.75V566.244L501.821 571.851L498.94 574.569L496.228 577.287L488.94 584.593V615.343H493.516V584.593L500.804 577.287L503.346 574.569L506.227 571.851L511.82 566.244V557.75V543.818L499.787 531.926H495.381L507.413 543.818V557.75Z" fill="#FF8AE2"/>
<path d="M492.161 545.347L489.957 542.969L481.653 551.293H486.059L492.161 545.347Z" fill="#FF8AE2"/>
<path d="M515.548 601.752H510.972L519.107 609.907L510.972 617.892H515.548L523.514 609.907L515.548 601.752Z" fill="#FF8AE2"/>
<path d="M563.511 581.025V598.864H551.309V593.767V580.345H542.665V554.691H527.073V593.767H535.039V618.911H546.902H551.309H572.154V606.849V598.864V581.025H563.511Z" fill="#93C2DB"/>
<path d="M578.594 554.522V543.988H567.409V554.691H563.511V581.025H572.154V598.864V605.999H578.594V593.767H584.018V554.522H578.594Z" fill="#FF8AE2"/>
<path d="M570.798 532.435H544.359V538.891H535.038V554.691H542.665V580.345H551.308V554.691H567.408V543.988H570.798V532.435Z" fill="#9C4668"/>
<path d="M505.889 371.206C506.357 371.206 506.736 370.826 506.736 370.357C506.736 369.888 506.357 369.507 505.889 369.507C505.421 369.507 505.042 369.888 505.042 370.357C505.042 370.826 505.421 371.206 505.889 371.206Z" fill="#FF8AE2"/>
<path d="M504.024 393.462C504.492 393.462 504.871 393.082 504.871 392.613C504.871 392.144 504.492 391.763 504.024 391.763C503.556 391.763 503.177 392.144 503.177 392.613C503.177 393.082 503.556 393.462 504.024 393.462Z" fill="#FF8AE2"/>
<path d="M507.753 405.525C508.221 405.525 508.6 405.144 508.6 404.675C508.6 404.206 508.221 403.826 507.753 403.826C507.285 403.826 506.905 404.206 506.905 404.675C506.905 405.144 507.285 405.525 507.753 405.525Z" fill="#FF8AE2"/>
<path d="M503.347 383.269C503.815 383.269 504.194 382.888 504.194 382.419C504.194 381.95 503.815 381.57 503.347 381.57C502.879 381.57 502.499 381.95 502.499 382.419C502.499 382.888 502.879 383.269 503.347 383.269Z" fill="#FF8AE2"/>
<path d="M510.973 362.881C511.441 362.881 511.821 362.501 511.821 362.032C511.821 361.563 511.441 361.183 510.973 361.183C510.505 361.183 510.126 361.563 510.126 362.032C510.126 362.501 510.505 362.881 510.973 362.881Z" fill="#FF8AE2"/>
<path d="M494.365 353.537C494.833 353.537 495.212 353.157 495.212 352.688C495.212 352.219 494.833 351.838 494.365 351.838C493.897 351.838 493.517 352.219 493.517 352.688C493.517 353.157 493.897 353.537 494.365 353.537Z" fill="#FF8AE2"/>
<path d="M518.43 382.249C518.898 382.249 519.277 381.869 519.277 381.4C519.277 380.931 518.898 380.55 518.43 380.55C517.962 380.55 517.582 380.931 517.582 381.4C517.582 381.869 517.962 382.249 518.43 382.249Z" fill="#FF8AE2"/>
<path d="M530.463 358.634C530.931 358.634 531.31 358.254 531.31 357.785C531.31 357.315 530.931 356.935 530.463 356.935C529.995 356.935 529.616 357.315 529.616 357.785C529.616 358.254 529.995 358.634 530.463 358.634Z" fill="#FF8AE2"/>
<path d="M546.903 361.862C547.371 361.862 547.75 361.482 547.75 361.013C547.75 360.544 547.371 360.163 546.903 360.163C546.435 360.163 546.055 360.544 546.055 361.013C546.055 361.482 546.435 361.862 546.903 361.862Z" fill="#FF8AE2"/>
<path d="M477.078 366.109C477.546 366.109 477.925 365.729 477.925 365.26C477.925 364.791 477.546 364.41 477.078 364.41C476.61 364.41 476.23 364.791 476.23 365.26C476.23 365.729 476.61 366.109 477.078 366.109Z" fill="#FF8AE2"/>
<path d="M490.128 373.585C490.596 373.585 490.975 373.204 490.975 372.735C490.975 372.266 490.596 371.886 490.128 371.886C489.66 371.886 489.28 372.266 489.28 372.735C489.28 373.204 489.66 373.585 490.128 373.585Z" fill="#FF8AE2"/>
<path d="M488.263 362.542C488.731 362.542 489.11 362.161 489.11 361.692C489.11 361.223 488.731 360.843 488.263 360.843C487.795 360.843 487.416 361.223 487.416 361.692C487.416 362.161 487.795 362.542 488.263 362.542Z" fill="#FF8AE2"/>
<path d="M475.891 350.649C476.359 350.649 476.739 350.269 476.739 349.8C476.739 349.331 476.359 348.95 475.891 348.95C475.423 348.95 475.044 349.331 475.044 349.8C475.044 350.269 475.423 350.649 475.891 350.649Z" fill="#FF8AE2"/>
<path d="M517.582 368.148C518.05 368.148 518.43 367.768 518.43 367.299C518.43 366.83 518.05 366.449 517.582 366.449C517.114 366.449 516.735 366.83 516.735 367.299C516.735 367.768 517.114 368.148 517.582 368.148Z" fill="#FF8AE2"/>
<path d="M614.354 395.331C614.822 395.331 615.202 394.951 615.202 394.482C615.202 394.013 614.822 393.632 614.354 393.632C613.886 393.632 613.507 394.013 613.507 394.482C613.507 394.951 613.886 395.331 614.354 395.331Z" fill="#FF8AE2"/>
<path d="M661.808 370.527C662.276 370.527 662.655 370.146 662.655 369.677C662.655 369.208 662.276 368.828 661.808 368.828C661.34 368.828 660.96 369.208 660.96 369.677C660.96 370.146 661.34 370.527 661.808 370.527Z" fill="#FF8AE2"/>
<path d="M630.963 409.602C631.431 409.602 631.81 409.222 631.81 408.753C631.81 408.284 631.431 407.903 630.963 407.903C630.495 407.903 630.115 408.284 630.115 408.753C630.115 409.222 630.495 409.602 630.963 409.602Z" fill="#FF8AE2"/>
<path d="M624.014 402.297C624.482 402.297 624.862 401.916 624.862 401.447C624.862 400.978 624.482 400.598 624.014 400.598C623.546 400.598 623.167 400.978 623.167 401.447C623.167 401.916 623.546 402.297 624.014 402.297Z" fill="#FF8AE2"/>
<path d="M632.827 420.645C633.295 420.645 633.675 420.265 633.675 419.796C633.675 419.327 633.295 418.947 632.827 418.947C632.359 418.947 631.98 419.327 631.98 419.796C631.98 420.265 632.359 420.645 632.827 420.645Z" fill="#FF8AE2"/>
<path d="M676.552 380.041C677.02 380.041 677.4 379.66 677.4 379.191C677.4 378.722 677.02 378.342 676.552 378.342C676.084 378.342 675.705 378.722 675.705 379.191C675.705 379.66 676.084 380.041 676.552 380.041Z" fill="#FF8AE2"/>
<path d="M615.204 412.49C615.672 412.49 616.051 412.11 616.051 411.641C616.051 411.172 615.672 410.791 615.204 410.791C614.736 410.791 614.356 411.172 614.356 411.641C614.356 412.11 614.736 412.49 615.204 412.49Z" fill="#FF8AE2"/>
<path d="M660.96 383.269C661.428 383.269 661.808 382.888 661.808 382.419C661.808 381.95 661.428 381.57 660.96 381.57C660.492 381.57 660.113 381.95 660.113 382.419C660.113 382.888 660.492 383.269 660.96 383.269Z" fill="#FF8AE2"/>
<path d="M681.467 366.279C681.935 366.279 682.314 365.899 682.314 365.43C682.314 364.961 681.935 364.581 681.467 364.581C680.999 364.581 680.619 364.961 680.619 365.43C680.619 365.899 680.999 366.279 681.467 366.279Z" fill="#FF8AE2"/>
<path d="M689.093 360.333C689.561 360.333 689.941 359.953 689.941 359.484C689.941 359.015 689.561 358.634 689.093 358.634C688.625 358.634 688.246 359.015 688.246 359.484C688.246 359.953 688.625 360.333 689.093 360.333Z" fill="#FF8AE2"/>
<path d="M646.555 373.585C647.023 373.585 647.402 373.205 647.402 372.735C647.402 372.266 647.023 371.886 646.555 371.886C646.087 371.886 645.707 372.266 645.707 372.735C645.707 373.205 646.087 373.585 646.555 373.585Z" fill="#FF8AE2"/>
<path d="M620.625 386.837C621.093 386.837 621.472 386.456 621.472 385.987C621.472 385.518 621.093 385.138 620.625 385.138C620.157 385.138 619.778 385.518 619.778 385.987C619.778 386.456 620.157 386.837 620.625 386.837Z" fill="#FF8AE2"/>
<path d="M669.095 361.862C669.563 361.862 669.942 361.482 669.942 361.013C669.942 360.544 669.563 360.163 669.095 360.163C668.627 360.163 668.248 360.544 668.248 361.013C668.248 361.482 668.627 361.862 669.095 361.862Z" fill="#FF8AE2"/>
<path d="M653.673 358.634C654.141 358.634 654.52 358.254 654.52 357.785C654.52 357.316 654.141 356.935 653.673 356.935C653.205 356.935 652.826 357.316 652.826 357.785C652.826 358.254 653.205 358.634 653.673 358.634Z" fill="#FF8AE2"/>
<path d="M631.81 393.123C632.278 393.123 632.657 392.743 632.657 392.273C632.657 391.804 632.278 391.424 631.81 391.424C631.342 391.424 630.963 391.804 630.963 392.273C630.963 392.743 631.342 393.123 631.81 393.123Z" fill="#FF8AE2"/>
<path d="M802.304 458.361C802.772 458.361 803.151 457.981 803.151 457.512C803.151 457.043 802.772 456.662 802.304 456.662C801.836 456.662 801.456 457.043 801.456 457.512C801.456 457.981 801.836 458.361 802.304 458.361Z" fill="#FF8AE2"/>
<path d="M801.117 427.101C801.585 427.101 801.964 426.721 801.964 426.252C801.964 425.782 801.585 425.402 801.117 425.402C800.649 425.402 800.27 425.782 800.27 426.252C800.27 426.721 800.649 427.101 801.117 427.101Z" fill="#FF8AE2"/>
<path d="M801.286 403.316C801.754 403.316 802.134 402.936 802.134 402.467C802.134 401.997 801.754 401.617 801.286 401.617C800.818 401.617 800.439 401.997 800.439 402.467C800.439 402.936 800.818 403.316 801.286 403.316Z" fill="#FF8AE2"/>
<path d="M797.897 442.222C798.365 442.222 798.744 441.841 798.744 441.372C798.744 440.903 798.365 440.523 797.897 440.523C797.429 440.523 797.049 440.903 797.049 441.372C797.049 441.841 797.429 442.222 797.897 442.222Z" fill="#FF8AE2"/>
<path d="M789.932 483.336C790.4 483.336 790.779 482.956 790.779 482.486C790.779 482.017 790.4 481.637 789.932 481.637C789.464 481.637 789.084 482.017 789.084 482.486C789.084 482.956 789.464 483.336 789.932 483.336Z" fill="#FF8AE2"/>
<path d="M785.864 496.927C786.332 496.927 786.712 496.547 786.712 496.078C786.712 495.609 786.332 495.228 785.864 495.228C785.396 495.228 785.017 495.609 785.017 496.078C785.017 496.547 785.396 496.927 785.864 496.927Z" fill="#FF8AE2"/>
<path d="M789.932 415.548C790.4 415.548 790.779 415.168 790.779 414.699C790.779 414.23 790.4 413.849 789.932 413.849C789.464 413.849 789.084 414.23 789.084 414.699C789.084 415.168 789.464 415.548 789.932 415.548Z" fill="#FF8AE2"/>
<path d="M803.828 480.957C804.296 480.957 804.676 480.577 804.676 480.108C804.676 479.639 804.296 479.258 803.828 479.258C803.36 479.258 802.981 479.639 802.981 480.108C802.981 480.577 803.36 480.957 803.828 480.957Z" fill="#FF8AE2"/>
<path d="M790.948 457.852C791.416 457.852 791.796 457.472 791.796 457.002C791.796 456.533 791.416 456.153 790.948 456.153C790.48 456.153 790.101 456.533 790.101 457.002C790.101 457.472 790.48 457.852 790.948 457.852Z" fill="#FF8AE2"/>
<path d="M783.83 472.123C784.298 472.123 784.678 471.743 784.678 471.273C784.678 470.804 784.298 470.424 783.83 470.424C783.362 470.424 782.983 470.804 782.983 471.273C782.983 471.743 783.362 472.123 783.83 472.123Z" fill="#FF8AE2"/>
<path d="M781.627 430.159C782.095 430.159 782.475 429.779 782.475 429.31C782.475 428.841 782.095 428.46 781.627 428.46C781.159 428.46 780.78 428.841 780.78 429.31C780.78 429.779 781.159 430.159 781.627 430.159Z" fill="#FF8AE2"/>
<path d="M357.766 492.68C358.234 492.68 358.613 492.3 358.613 491.831C358.613 491.362 358.234 490.981 357.766 490.981C357.298 490.981 356.918 491.362 356.918 491.831C356.918 492.3 357.298 492.68 357.766 492.68Z" fill="#FF8AE2"/>
<path d="M383.018 488.093C383.486 488.093 383.865 487.713 383.865 487.244C383.865 486.775 383.486 486.394 383.018 486.394C382.55 486.394 382.171 486.775 382.171 487.244C382.171 487.713 382.55 488.093 383.018 488.093Z" fill="#FF8AE2"/>
<path d="M358.615 396.691C359.083 396.691 359.462 396.31 359.462 395.841C359.462 395.372 359.083 394.992 358.615 394.992C358.147 394.992 357.768 395.372 357.768 395.841C357.768 396.31 358.147 396.691 358.615 396.691Z" fill="#FF8AE2"/>
<path d="M366.579 364.75C367.047 364.75 367.426 364.37 367.426 363.901C367.426 363.432 367.047 363.051 366.579 363.051C366.111 363.051 365.731 363.432 365.731 363.901C365.731 364.37 366.111 364.75 366.579 364.75Z" fill="#FF8AE2"/>
<path d="M380.984 349.63C381.452 349.63 381.831 349.25 381.831 348.781C381.831 348.311 381.452 347.931 380.984 347.931C380.516 347.931 380.137 348.311 380.137 348.781C380.137 349.25 380.516 349.63 380.984 349.63Z" fill="#FF8AE2"/>
<path d="M361.155 447.998C361.623 447.998 362.002 447.618 362.002 447.149C362.002 446.68 361.623 446.299 361.155 446.299C360.687 446.299 360.308 446.68 360.308 447.149C360.308 447.618 360.687 447.998 361.155 447.998Z" fill="#FF8AE2"/>
<path d="M360.477 482.147C360.945 482.147 361.324 481.766 361.324 481.297C361.324 480.828 360.945 480.448 360.477 480.448C360.009 480.448 359.63 480.828 359.63 481.297C359.63 481.766 360.009 482.147 360.477 482.147Z" fill="#FF8AE2"/>
<path d="M363.697 422.344C364.165 422.344 364.545 421.964 364.545 421.495C364.545 421.026 364.165 420.645 363.697 420.645C363.229 420.645 362.85 421.026 362.85 421.495C362.85 421.964 363.229 422.344 363.697 422.344Z" fill="#FF8AE2"/>
<path d="M373.188 474.671C373.656 474.671 374.035 474.291 374.035 473.822C374.035 473.353 373.656 472.973 373.188 472.973C372.72 472.973 372.34 473.353 372.34 473.822C372.34 474.291 372.72 474.671 373.188 474.671Z" fill="#FF8AE2"/>
<path d="M368.273 486.734C368.741 486.734 369.121 486.354 369.121 485.885C369.121 485.415 368.741 485.035 368.273 485.035C367.805 485.035 367.426 485.415 367.426 485.885C367.426 486.354 367.805 486.734 368.273 486.734Z" fill="#FF8AE2"/>
<path d="M372.51 348.271C372.978 348.271 373.358 347.89 373.358 347.421C373.358 346.952 372.978 346.572 372.51 346.572C372.042 346.572 371.663 346.952 371.663 347.421C371.663 347.89 372.042 348.271 372.51 348.271Z" fill="#FF8AE2"/>
<path d="M368.103 455.643C368.571 455.643 368.951 455.263 368.951 454.794C368.951 454.325 368.571 453.944 368.103 453.944C367.635 453.944 367.256 454.325 367.256 454.794C367.256 455.263 367.635 455.643 368.103 455.643Z" fill="#FF8AE2"/>
<path d="M379.967 461.929C380.435 461.929 380.814 461.549 380.814 461.08C380.814 460.611 380.435 460.23 379.967 460.23C379.499 460.23 379.12 460.611 379.12 461.08C379.12 461.549 379.499 461.929 379.967 461.929Z" fill="#FF8AE2"/>
<path d="M358.615 350.989C359.083 350.989 359.462 350.609 359.462 350.14C359.462 349.671 359.083 349.29 358.615 349.29C358.147 349.29 357.768 349.671 357.768 350.14C357.768 350.609 358.147 350.989 358.615 350.989Z" fill="#FF8AE2"/>
<path d="M362.172 436.445C362.64 436.445 363.019 436.065 363.019 435.596C363.019 435.127 362.64 434.746 362.172 434.746C361.704 434.746 361.324 435.127 361.324 435.596C361.324 436.065 361.704 436.445 362.172 436.445Z" fill="#FF8AE2"/>
<path d="M657.74 545.007C658.302 545.007 658.757 544.551 658.757 543.988C658.757 543.425 658.302 542.969 657.74 542.969C657.178 542.969 656.723 543.425 656.723 543.988C656.723 544.551 657.178 545.007 657.74 545.007Z" fill="#FF8AE2"/>
<path d="M677.399 537.362C677.961 537.362 678.416 536.906 678.416 536.343C678.416 535.78 677.961 535.323 677.399 535.323C676.838 535.323 676.382 535.78 676.382 536.343C676.382 536.906 676.838 537.362 677.399 537.362Z" fill="#FF8AE2"/>
<path d="M669.773 546.706C670.335 546.706 670.79 546.25 670.79 545.687C670.79 545.124 670.335 544.668 669.773 544.668C669.211 544.668 668.756 545.124 668.756 545.687C668.756 546.25 669.211 546.706 669.773 546.706Z" fill="#FF8AE2"/>
<path d="M681.128 549.765C681.689 549.765 682.145 549.308 682.145 548.745C682.145 548.182 681.689 547.726 681.128 547.726C680.566 547.726 680.111 548.182 680.111 548.745C680.111 549.308 680.566 549.765 681.128 549.765Z" fill="#FF8AE2"/>
<path d="M666.553 553.332C667.115 553.332 667.57 552.876 667.57 552.313C667.57 551.75 667.115 551.293 666.553 551.293C665.992 551.293 665.536 551.75 665.536 552.313C665.536 552.876 665.992 553.332 666.553 553.332Z" fill="#FF8AE2"/>
<path d="M665.536 577.117C666.097 577.117 666.552 576.661 666.552 576.098C666.552 575.535 666.097 575.078 665.536 575.078C664.974 575.078 664.519 575.535 664.519 576.098C664.519 576.661 664.974 577.117 665.536 577.117Z" fill="#FF8AE2"/>
<path d="M664.011 564.375C664.572 564.375 665.028 563.919 665.028 563.356C665.028 562.793 664.572 562.337 664.011 562.337C663.449 562.337 662.994 562.793 662.994 563.356C662.994 563.919 663.449 564.375 664.011 564.375Z" fill="#FF8AE2"/>
<path d="M539.106 545.007C539.668 545.007 540.123 544.551 540.123 543.988C540.123 543.425 539.668 542.969 539.106 542.969C538.545 542.969 538.089 543.425 538.089 543.988C538.089 544.551 538.545 545.007 539.106 545.007Z" fill="#FF8AE2"/>
<path d="M545.377 549.765C545.939 549.765 546.394 549.308 546.394 548.745C546.394 548.182 545.939 547.726 545.377 547.726C544.816 547.726 544.36 548.182 544.36 548.745C544.36 549.308 544.816 549.765 545.377 549.765Z" fill="#FF8AE2"/>
<path d="M563.511 538.382C564.073 538.382 564.528 537.925 564.528 537.362C564.528 536.799 564.073 536.343 563.511 536.343C562.95 536.343 562.495 536.799 562.495 537.362C562.495 537.925 562.95 538.382 563.511 538.382Z" fill="#FF8AE2"/>
<path d="M557.749 547.726C558.31 547.726 558.766 547.269 558.766 546.706C558.766 546.143 558.31 545.687 557.749 545.687C557.187 545.687 556.732 546.143 556.732 546.706C556.732 547.269 557.187 547.726 557.749 547.726Z" fill="#FF8AE2"/>
<path d="M546.902 559.788C547.463 559.788 547.919 559.332 547.919 558.769C547.919 558.206 547.463 557.749 546.902 557.749C546.34 557.749 545.885 558.206 545.885 558.769C545.885 559.332 546.34 559.788 546.902 559.788Z" fill="#FF8AE2"/>
<path d="M547.919 542.799C548.481 542.799 548.936 542.342 548.936 541.779C548.936 541.216 548.481 540.76 547.919 540.76C547.357 540.76 546.902 541.216 546.902 541.779C546.902 542.342 547.357 542.799 547.919 542.799Z" fill="#FF8AE2"/>
<path d="M546.394 573.889C546.955 573.889 547.411 573.433 547.411 572.87C547.411 572.307 546.955 571.851 546.394 571.851C545.832 571.851 545.377 572.307 545.377 572.87C545.377 573.433 545.832 573.889 546.394 573.889Z" fill="#FF8AE2"/>
<path d="M1059.74 82.8969C1059.74 80.5184 1055.16 79.4991 1054.32 77.97C1053.81 77.1206 1055.33 76.441 1056.52 76.6109C1057.37 76.6109 1064.65 77.97 1069.74 77.97C1087.03 78.4797 1091.6 74.2324 1091.43 71.8539C1091.26 69.4753 1084.65 68.2861 1083.64 66.7571C1082.79 65.228 1083.97 63.699 1089.91 62.6796C1096.01 61.6602 1106.52 61.1506 1113.46 57.9226C1120.41 54.6946 1118.89 50.957 1110.07 48.2387C1106.85 46.8795 1108.89 44.8408 1114.99 40.0838C1121.09 35.3267 1136.17 20.3761 1131.43 12.561C1127.36 6.78463 1119.9 10.1825 1114.65 15.6191C1110.58 19.6965 1102.62 28.0213 1099.74 28.1912C1094.48 28.7009 1099.23 20.7159 1096.52 17.8277C1093.8 14.9395 1088.04 20.0363 1085.67 24.2837C1083.3 28.531 1081.43 35.3267 1078.89 40.2537C1076.18 45.6902 1073.47 43.6515 1072.62 41.7827C1071.94 39.9139 1073.13 32.2687 1067.87 31.4192C1063.3 30.7396 1057.88 42.4623 1053.3 49.0881C1051.6 51.6365 1049.4 54.015 1047.03 56.0538C1045.67 57.0731 1044.99 56.7333 1044.66 56.0538C1043.98 55.0344 1044.66 48.5784 1040.08 47.2193C1036.01 46.1999 1032.11 52.9957 1026.86 59.2817C1022.62 64.3785 1016.69 67.0968 1010.25 69.1356C1001.44 71.8538 988.051 72.5334 988.051 72.5334C988.051 72.5334 994.66 75.4216 1000.25 77.1206C1013.81 81.198 1020.25 83.4066 1035.5 84.9357C1047.03 86.1249 1059.06 87.3142 1059.74 82.8969C1059.74 83.0668 1059.74 82.8969 1059.74 82.8969Z" fill="#93C2DB"/>
<path d="M356.24 214.564C363.528 199.104 361.155 179.736 353.02 164.446C345.055 149.495 334.717 138.792 318.108 130.977C314.041 129.108 303.025 125.88 303.025 125.88C303.025 125.88 303.194 135.224 303.533 137.942C305.058 149.325 306.753 161.218 313.702 169.033C320.142 176.338 328.446 179.906 337.089 184.663C360.986 198.085 356.24 214.564 356.24 214.564Z" fill="#93C2DB"/>
<path d="M232.353 322.447C232.353 322.447 276.756 320.238 293.364 353.027C311.159 388.025 328.616 399.918 328.616 399.918C328.616 399.918 292.517 404.845 275.4 384.118C258.113 363.391 265.74 342.494 232.353 322.447Z" fill="#93C2DB"/>
<path d="M1053.3 239.369C1053.3 239.369 1044.66 216.433 1055.67 201.313C1064.32 189.25 1084.82 186.362 1103.13 188.401C1115.5 189.76 1131.26 181.775 1131.26 181.775C1131.26 181.775 1131.26 200.123 1111.26 205.9C1100.08 209.128 1090.25 204.201 1074.82 214.564C1054.66 227.986 1053.3 239.369 1053.3 239.369Z" fill="#93C2DB"/>
<path d="M598.254 250.752C590.966 235.291 593.509 216.093 601.474 200.633C616.049 172.601 651.47 167.164 651.47 167.164C651.47 167.164 648.419 190.1 637.403 203.181C631.133 210.657 620.116 213.375 612.49 219.491C594.356 233.932 598.254 250.752 598.254 250.752Z" fill="#93C2DB"/>
<path d="M963.307 284.051C961.951 283.031 905.685 262.814 956.359 221.36L991.101 193.327C991.101 193.327 992.288 224.418 970.425 244.805C948.732 264.683 963.307 284.051 963.307 284.051Z" fill="#93C2DB"/>
<path d="M403.016 284.051C401.66 283.031 345.394 262.814 396.067 221.36L430.81 193.327C430.81 193.327 431.996 224.418 410.134 244.805C388.61 264.683 403.016 284.051 403.016 284.051Z" fill="#93C2DB"/>
<path d="M902.296 404.845C902.296 404.845 921.955 374.434 955.512 371.885C983.645 369.677 1018.73 385.987 1018.73 385.987C1018.73 385.987 991.271 408.922 956.528 405.185C931.446 402.466 924.158 394.142 902.296 404.845Z" fill="#93C2DB"/>
<path d="M216.422 111.099C212.016 111.099 211.677 123.331 211.168 134.884C210.66 150.175 212.016 156.801 214.219 170.902C215.066 176.678 217.1 183.644 217.1 183.644C217.1 183.644 219.473 170.392 223.371 161.897C226.252 155.781 229.641 150.175 235.234 146.607C242.013 142.36 249.301 139.302 248.962 135.224C248.114 130.467 241.674 130.297 240.827 129.448C240.318 128.938 239.98 128.258 241.166 127.069C243.539 125.03 246.25 123.162 248.962 121.802C256.08 118.065 268.452 114.327 268.282 109.74C268.113 104.303 260.486 104.643 258.791 103.624C256.927 102.604 255.402 99.7163 261.164 97.6776C266.418 95.8088 273.366 94.9593 277.942 93.0905C282.518 91.3915 288.28 86.4646 285.908 83.2366C283.366 80.0087 274.892 83.7463 276.078 78.4796C276.756 75.5914 285.908 68.7957 290.653 65.3978C296.754 60.9806 301.161 53.8451 295.907 49.088C288.789 43.3117 272.011 56.2236 266.418 61.6602C260.825 67.0968 258.622 68.7957 257.605 65.5677C256.08 56.5634 252.521 54.5246 248.453 60.9806C244.386 67.4365 242.352 77.8 240.657 83.7463C238.963 89.6926 237.098 90.5421 235.743 89.5227C234.387 88.5033 234.048 81.5377 231.675 81.1979C229.472 80.6882 224.727 84.5958 222.693 101.925C222.184 106.852 222.354 114.327 222.354 115.177C222.184 116.536 221.507 117.895 220.659 117.215C219.134 116.196 218.795 111.269 216.422 111.099Z" fill="#93C2DB"/>
<path d="M823.489 236.31C825.692 235.801 825.692 231.044 827.048 230.024C827.895 229.345 828.573 230.704 828.912 231.893C829.081 232.743 829.42 240.218 830.268 245.145C833.488 262.304 838.403 265.702 840.606 265.022C842.809 264.343 842.64 257.547 843.995 256.358C845.351 255.169 847.046 256.018 849.249 261.625C851.452 267.401 854.164 277.595 858.74 283.711C863.316 289.827 866.536 287.448 867.383 278.274C868.061 274.876 870.434 276.405 876.365 281.332C882.297 286.259 899.753 297.812 906.363 291.696C911.108 286.599 906.193 279.803 899.923 275.896C895.177 272.668 885.517 266.721 884.67 263.833C883.145 258.736 891.788 261.794 893.991 258.397C896.194 254.999 890.093 250.582 885.517 249.222C880.941 247.863 873.993 247.354 868.739 245.994C862.977 244.465 864.333 241.407 866.027 240.218C867.553 239.029 875.179 238.859 875.01 233.422C874.84 228.835 862.299 225.947 855.011 222.889C852.3 221.7 849.588 220.001 847.046 218.132C845.86 217.112 846.029 216.263 846.538 215.753C847.385 214.904 853.656 214.054 854.164 209.297C854.164 205.22 846.876 202.672 839.928 198.934C833.996 195.876 830.268 190.609 827.048 184.663C822.641 176.678 819.421 164.106 819.421 164.106C819.421 164.106 817.896 170.562 817.387 176.508C816.371 190.779 815.523 197.575 817.218 212.695C817.896 224.418 819.082 236.65 823.489 236.31Z" fill="#93C2DB"/>
<path d="M767.9 122.822C767.731 123.162 750.105 150.005 746.207 191.799C745.868 188.74 745.868 184.493 745.699 181.265C751.122 144.568 765.866 121.802 766.036 121.632L767.9 122.822Z" fill="#FF8AE2"/>
<path d="M299.974 386.836C290.314 382.249 286.416 374.264 282.009 364.92C278.789 358.124 275.061 350.309 268.282 342.834C249.978 322.956 208.456 318.539 208.117 318.539L208.456 315.991C210.151 316.161 251.334 320.578 270.315 341.135C277.434 348.78 281.162 356.765 284.552 363.731C288.788 372.565 292.348 380.21 301.16 384.288L299.974 386.836Z" fill="#FF8AE2"/>
<path d="M216.93 203.181C215.913 195.196 212.016 154.252 226.082 124.011C242.691 88.6731 274.553 65.5675 274.891 65.3976L276.417 67.4364C276.078 67.6063 244.725 90.372 228.455 125.2C214.558 154.762 218.625 195.196 219.472 203.011L216.93 203.181Z" fill="#FF8AE2"/>
<path d="M1015.51 76.1011C993.643 76.1011 973.984 71.344 968.73 69.9849L969.408 67.4365C977.034 69.4752 1016.35 78.8194 1047.54 69.1354C1084.14 57.7526 1110.75 29.7201 1111.09 29.3803L1112.95 31.0793C1112.62 31.4191 1085.5 59.7913 1048.38 71.5139C1037.71 74.9118 1026.18 76.1011 1015.51 76.1011Z" fill="#FF8AE2"/>
<path d="M884.5 277.255C884.161 277.085 851.113 256.528 832.132 222.549C824.675 209.298 821.116 193.328 819.082 179.226C818.574 175.829 818.065 168.863 818.065 168.863L819.591 160.878C820.438 177.358 823.828 202.502 834.335 221.36C852.977 254.659 885.517 275.046 885.856 275.216L884.5 277.255Z" fill="#FF8AE2"/>
<path d="M360.308 190.779C360.138 188.74 359.969 186.532 359.63 184.493C345.394 162.067 317.6 142.699 316.244 141.85L314.888 143.889C315.058 144.058 347.767 166.654 360.308 190.779Z" fill="#FF8AE2"/>
<path d="M415.388 215.754C415.219 215.923 405.05 225.777 395.39 234.952C383.526 246.165 379.289 257.547 382.509 270.799C383.696 271.988 384.882 273.178 386.238 274.197C381.323 260.096 384.713 248.543 397.254 236.82C406.914 227.646 417.252 217.622 417.252 217.622L415.388 215.754Z" fill="#FF8AE2"/>
<path d="M973.984 219.661C973.814 219.831 963.646 229.685 953.985 238.859C944.325 248.033 939.749 257.208 940.088 267.401C940.936 268.591 941.953 269.61 942.969 270.629C941.444 259.756 945.512 250.242 955.85 240.558C965.51 231.384 975.848 221.36 975.848 221.36L973.984 219.661Z" fill="#FF8AE2"/>
<path d="M594.864 220.511C594.525 222.719 594.186 224.928 594.186 227.136C606.388 201.992 635.877 185.003 636.216 184.833L635.03 182.624C634.86 182.624 624.353 188.74 613.337 198.764C607.066 204.371 600.117 211.676 594.864 220.511Z" fill="#FF8AE2"/>
<path d="M1071.26 201.143C1082.96 195.366 1101.43 197.405 1101.6 197.405L1101.94 194.857C1101.09 194.687 1082.45 192.648 1070.08 198.764C1061.94 202.672 1055.33 208.958 1050.08 217.453C1049.91 219.152 1049.91 221.02 1050.08 222.719C1055.33 212.865 1062.45 205.56 1071.26 201.143Z" fill="#FF8AE2"/>
<path d="M889.754 417.757L887.72 416.228C888.059 415.888 894.499 407.393 905.515 400.597C911.616 396.86 918.395 393.802 927.039 390.744C950.596 382.759 985.339 385.477 986.864 385.647L986.695 388.195C986.356 388.195 950.935 385.307 927.886 393.292C919.243 396.18 912.803 399.238 906.871 402.806C896.363 409.262 889.923 417.757 889.754 417.757Z" fill="#FF8AE2"/>
</svg>
