<svg xmlns="http://www.w3.org/2000/svg" xmlns:xlink="http://www.w3.org/1999/xlink" version="1.1" x="0px" y="0px" viewBox="0 0 500 500" enable-background="new 0 0 500 500" xml:space="preserve">
<g xmlns="http://www.w3.org/2000/svg" id="BACKGROUND">
</g>
<g xmlns="http://www.w3.org/2000/svg" id="OBJECTS">
	<ellipse id="XMLID_2608_" fill="#D3D3D3" cx="244.351" cy="435.373" rx="153.216" ry="24.216"/>
	<path id="XMLID_40_" fill="#0C486F" d="M321.563,438.375H167.138c-9.095,0-16.468-7.373-16.468-16.468V83.277   c0-9.095,7.373-16.468,16.468-16.468h154.424c9.095,0,16.468,7.373,16.468,16.468v338.63   C338.031,431.002,330.658,438.375,321.563,438.375z"/>
	<rect id="XMLID_39_" x="216.246" y="83.671" fill="#1F313D" width="59.019" height="6.558"/>
	<circle id="XMLID_33_" fill="#1F313D" cx="246.224" cy="414.363" r="15.457"/>
	<rect id="XMLID_34_" x="167.533" y="101.47" fill="#D3D3D3" width="157.383" height="146.578"/>
	<circle id="XMLID_2308_" fill="#F3F3F3" cx="240.554" cy="147.086" r="10.518"/>
	<rect id="XMLID_32_" x="167.533" y="248.048" fill="#F7F7F5" width="157.383" height="141.958"/>
	<rect id="XMLID_2015_" x="190.64" y="304.881" fill="#D3D3D3" width="111.168" height="6.558"/>
	<g id="XMLID_30_">
		<rect id="XMLID_31_" x="190.845" y="319.027" fill="#2995F5" width="31.227" height="6.558"/>
		<rect id="XMLID_1456_" x="230.713" y="319.027" fill="#2995F5" width="31.227" height="6.558"/>
		<rect id="XMLID_1459_" x="270.581" y="319.027" fill="#2995F5" width="31.227" height="6.558"/>
	</g>
	<rect id="XMLID_2200_" x="167.533" y="342.977" fill="#D3D3D3" width="47.505" height="47.029"/>
	<rect id="XMLID_2201_" x="223.618" y="342.977" fill="#D3D3D3" width="101.298" height="47.029"/>
	<rect id="XMLID_1455_" x="315.62" y="248.048" fill="#EAEAE8" width="9.295" height="94.93"/>
	<polygon id="XMLID_2305_" fill="#F2F2F2" points="266.826,187.348 215.037,157.261 167.533,191.955 167.533,248.048  "/>
	<polygon id="XMLID_2306_" fill="#F3F3F3" points="167.533,248.048 286.195,150.703 324.916,189.733 324.916,248.048  "/>
	<g id="XMLID_2581_">
		<g id="XMLID_2445_">
			<circle id="XMLID_2447_" fill="#2A94F5" cx="333.177" cy="270.3" r="12.201"/>
			<path id="XMLID_2446_" fill="#FFFFFF" d="M340.427,265.859c-2.382-4.868-7.25,1.761-7.25,1.761s-4.868-6.629-7.25-1.761     c-2.382,4.868,7.25,10.668,7.25,10.668S342.809,270.727,340.427,265.859z"/>
		</g>
		<g id="XMLID_2547_">
			
				<ellipse id="XMLID_2549_" transform="matrix(0.7071 -0.7071 0.7071 0.7071 -115.3109 161.5585)" fill="#2A94F5" cx="137.363" cy="219.972" rx="9.967" ry="9.967"/>
			<path id="XMLID_2548_" fill="#FFFFFF" d="M143.286,216.343c-1.946-3.977-5.923,1.438-5.923,1.438s-3.977-5.415-5.923-1.438     c-1.946,3.977,5.923,8.715,5.923,8.715S145.232,220.32,143.286,216.343z"/>
		</g>
		<g id="XMLID_2584_">
			<circle id="XMLID_2586_" fill="#2A94F5" cx="402.637" cy="119.057" r="7.091"/>
			<path id="XMLID_2585_" fill="#FFFFFF" d="M406.85,116.476c-1.384-2.829-4.214,1.023-4.214,1.023s-2.829-3.853-4.214-1.023     c-1.385,2.829,4.214,6.2,4.214,6.2S408.235,119.305,406.85,116.476z"/>
		</g>
		<g id="XMLID_2550_">
			
				<ellipse id="XMLID_2552_" transform="matrix(0.7071 -0.7071 0.7071 0.7071 -192.0175 146.19)" fill="#2A94F5" cx="80.458" cy="304.881" rx="9.967" ry="9.967"/>
			<path id="XMLID_2551_" fill="#FFFFFF" d="M86.381,301.252c-1.946-3.977-5.923,1.439-5.923,1.439s-3.977-5.415-5.923-1.439     c-1.946,3.977,5.923,8.716,5.923,8.716S88.327,305.229,86.381,301.252z"/>
		</g>
		<g id="XMLID_2568_">
			
				<ellipse id="XMLID_2570_" transform="matrix(0.7071 -0.7071 0.7071 0.7071 -145.2829 160.5528)" fill="#2A94F5" cx="121.163" cy="255.648" rx="9.967" ry="9.967"/>
			<path id="XMLID_2569_" fill="#FFFFFF" d="M127.086,252.02c-1.946-3.977-5.923,1.439-5.923,1.439s-3.977-5.416-5.923-1.439     c-1.946,3.977,5.923,8.716,5.923,8.716S129.032,255.997,127.086,252.02z"/>
		</g>
		<g id="XMLID_2523_">
			<circle id="XMLID_2525_" fill="#2A94F5" cx="413.03" cy="223.206" r="21.279"/>
			<path id="XMLID_2524_" fill="#FFFFFF" d="M425.675,215.459c-4.155-8.491-12.646,3.071-12.646,3.071s-8.49-11.562-12.645-3.071     c-4.155,8.491,12.645,18.607,12.645,18.607S429.83,223.95,425.675,215.459z"/>
		</g>
		<g id="XMLID_2414_">
			
				<ellipse id="XMLID_2418_" transform="matrix(0.161 -0.987 0.987 0.161 -90.5306 272.3683)" fill="#2A94F5" cx="114.93" cy="189.43" rx="15.813" ry="15.813"/>
			<path id="XMLID_2417_" fill="#FFFFFF" d="M124.327,183.674c-3.088-6.309-9.397,2.282-9.397,2.282s-6.309-8.592-9.397-2.282     c-3.088,6.309,9.397,13.827,9.397,13.827S127.415,189.983,124.327,183.674z"/>
		</g>
	</g>
	
		<ellipse id="XMLID_2444_" transform="matrix(0.6366 -0.7712 0.7712 0.6366 -77.1138 398.5919)" fill="#0C548F" cx="384.393" cy="281.122" rx="25.085" ry="25.085"/>
	<g id="XMLID_2441_">
		<path id="XMLID_2443_" fill="#FFFFFF" d="M400.218,280.279c0-1.319-1.069-2.388-2.388-2.388h-8.943v-8.287    c0-2.405-1.949-4.354-4.354-4.354c0,0-0.964,4.115-2.156,6.006l-6.131,11.879v13.859h18.073c1.319,0,2.388-1.069,2.388-2.388    c0-1.319-1.069-2.388-2.388-2.388h1.498c1.319,0,2.388-1.069,2.388-2.388c0-1.319-1.069-2.388-2.388-2.388h1.264    c1.319,0,2.388-1.069,2.388-2.388c0-1.319-1.069-2.388-2.388-2.388h0.749C399.149,282.667,400.218,281.598,400.218,280.279z"/>
		<rect id="XMLID_2442_" x="368.568" y="283.135" fill="#FFFFFF" width="6.18" height="13.859"/>
	</g>
	<g id="XMLID_2531_">
		<circle id="XMLID_2535_" fill="#0C548F" cx="153.531" cy="354.003" r="19.79"/>
		<g id="XMLID_2532_">
			<path id="XMLID_2534_" fill="#FFFFFF" d="M166.016,353.338c0-1.04-0.843-1.884-1.884-1.884h-7.055v-6.538     c0-1.897-1.538-3.435-3.435-3.435c0,0-0.76,3.246-1.701,4.738l-4.837,9.371v10.933h14.258c1.04,0,1.884-0.843,1.884-1.884     s-0.843-1.884-1.884-1.884h1.182c1.04,0,1.884-0.843,1.884-1.884c0-1.04-0.843-1.884-1.884-1.884h0.997     c1.04,0,1.884-0.843,1.884-1.884c0-1.04-0.843-1.884-1.884-1.884h0.591C165.173,355.222,166.016,354.379,166.016,353.338z"/>
			<rect id="XMLID_2533_" x="141.047" y="355.592" fill="#FFFFFF" width="4.876" height="10.933"/>
		</g>
	</g>
	<g id="XMLID_2553_">
		
			<ellipse id="XMLID_2557_" transform="matrix(0.7071 -0.7071 0.7071 0.7071 8.5631 335.8823)" fill="#0C548F" cx="409.727" cy="157.605" rx="12.101" ry="12.101"/>
		<g id="XMLID_2554_">
			<path id="XMLID_2556_" fill="#FFFFFF" d="M417.361,157.198c0-0.636-0.516-1.152-1.152-1.152h-4.314v-3.998     c0-1.16-0.94-2.1-2.1-2.1c0,0-0.465,1.985-1.04,2.897l-2.958,5.73v6.685h8.718c0.636,0,1.152-0.516,1.152-1.152     c0-0.636-0.516-1.152-1.152-1.152h0.723c0.636,0,1.152-0.516,1.152-1.152c0-0.636-0.516-1.152-1.152-1.152h0.61     c0.636,0,1.152-0.516,1.152-1.152c0-0.636-0.516-1.152-1.152-1.152h0.361C416.845,158.35,417.361,157.834,417.361,157.198z"/>
			<rect id="XMLID_2555_" x="402.094" y="158.576" fill="#FFFFFF" width="2.981" height="6.685"/>
		</g>
	</g>
	<g id="XMLID_2571_">
		
			<ellipse id="XMLID_2575_" transform="matrix(0.7071 -0.7071 0.7071 0.7071 -169.617 165.469)" fill="#0C548F" cx="114.93" cy="287.48" rx="12.101" ry="12.101"/>
		<g id="XMLID_2572_">
			<path id="XMLID_2574_" fill="#FFFFFF" d="M122.564,287.074c0-0.636-0.516-1.152-1.152-1.152h-4.314v-3.998     c0-1.16-0.94-2.1-2.1-2.1c0,0-0.465,1.985-1.04,2.897l-2.958,5.73v6.685h8.718c0.636,0,1.152-0.516,1.152-1.152     s-0.516-1.152-1.152-1.152h0.723c0.636,0,1.152-0.516,1.152-1.152c0-0.636-0.516-1.152-1.152-1.152h0.61     c0.636,0,1.152-0.516,1.152-1.152c0-0.636-0.516-1.152-1.152-1.152h0.361C122.048,288.226,122.564,287.71,122.564,287.074z"/>
			<rect id="XMLID_2573_" x="107.296" y="288.451" fill="#FFFFFF" width="2.981" height="6.685"/>
		</g>
	</g>
	<g id="XMLID_2576_">
		
			<ellipse id="XMLID_2580_" transform="matrix(0.7071 -0.7071 0.7071 0.7071 28.5642 236.3015)" fill="#0C548F" cx="299.523" cy="83.671" rx="12.101" ry="12.101"/>
		<g id="XMLID_2577_">
			<path id="XMLID_2579_" fill="#FFFFFF" d="M307.157,83.264c0-0.636-0.516-1.152-1.152-1.152h-4.314v-3.998     c0-1.16-0.94-2.1-2.1-2.1c0,0-0.465,1.985-1.04,2.897l-2.958,5.73v6.685h8.718c0.636,0,1.152-0.516,1.152-1.152     c0-0.636-0.516-1.152-1.152-1.152h0.723c0.636,0,1.152-0.516,1.152-1.152c0-0.636-0.516-1.152-1.152-1.152h0.61     c0.636,0,1.152-0.516,1.152-1.152c0-0.636-0.516-1.152-1.152-1.152h0.361C306.641,84.416,307.157,83.9,307.157,83.264z"/>
			<rect id="XMLID_2578_" x="291.889" y="84.642" fill="#FFFFFF" width="2.981" height="6.685"/>
		</g>
	</g>
	<g id="XMLID_2583_">
		<circle id="XMLID_2606_" fill="#0C548F" cx="223.494" cy="67.496" r="7.779"/>
		<g id="XMLID_2603_">
			<path id="XMLID_2605_" fill="#FFFFFF" d="M228.402,67.234c0-0.409-0.332-0.741-0.741-0.741h-2.773v-2.57     c0-0.746-0.604-1.35-1.35-1.35c0,0-0.299,1.276-0.669,1.863l-1.901,3.684v4.298h5.605c0.409,0,0.74-0.332,0.74-0.741     c0-0.409-0.331-0.741-0.74-0.741h0.465c0.409,0,0.74-0.331,0.74-0.741c0-0.409-0.331-0.74-0.74-0.74h0.392     c0.409,0,0.74-0.332,0.74-0.741c0-0.409-0.331-0.74-0.74-0.74h0.232C228.07,67.975,228.402,67.643,228.402,67.234z"/>
			<rect id="XMLID_2604_" x="218.586" y="68.12" fill="#FFFFFF" width="1.917" height="4.298"/>
		</g>
	</g>
	<g id="XMLID_2397_">
		<circle id="XMLID_2408_" fill="#FFBE56" cx="166.871" cy="276.858" r="21.5"/>
		<g id="XMLID_2398_">
			<g id="XMLID_2405_">
				<path id="XMLID_2406_" fill="#2A94F5" d="M180.211,278.3c0,7.367-5.972,13.34-13.34,13.34s-13.34-5.973-13.34-13.34H180.211z"/>
			</g>
			<g id="XMLID_2399_">
				<g id="XMLID_2403_">
					<path id="XMLID_2404_" fill="#30201D" d="M162.571,274.05c-0.39,0-0.737-0.276-0.812-0.673       c-0.576-3.046-2.285-5.173-4.157-5.173c-1.876,0-3.581,2.126-4.148,5.171c-0.085,0.449-0.516,0.738-0.964,0.662       c-0.449-0.084-0.745-0.515-0.662-0.964c0.727-3.901,3.048-6.522,5.775-6.522c2.722,0,5.045,2.621,5.782,6.52       c0.085,0.449-0.21,0.881-0.659,0.966C162.673,274.045,162.622,274.05,162.571,274.05z"/>
				</g>
				<g id="XMLID_2401_">
					<path id="XMLID_2402_" fill="#30201D" d="M181.102,274.05c-0.39,0-0.736-0.276-0.812-0.673       c-0.576-3.046-2.285-5.173-4.158-5.173c-1.875,0-3.581,2.126-4.148,5.171c-0.084,0.448-0.514,0.737-0.965,0.661       c-0.449-0.084-0.745-0.516-0.661-0.965c0.728-3.9,3.049-6.522,5.775-6.522c2.722,0,5.046,2.621,5.783,6.52       c0.085,0.449-0.21,0.881-0.659,0.966C181.205,274.045,181.153,274.05,181.102,274.05z"/>
				</g>
			</g>
		</g>
	</g>
	<g id="XMLID_2513_">
		<circle id="XMLID_2522_" fill="#FFBE56" cx="350.411" cy="126.522" r="12.644"/>
		<g id="XMLID_2514_">
			<g id="XMLID_2520_">
				<path id="XMLID_2521_" fill="#2A94F5" d="M358.256,127.37c0,4.333-3.512,7.845-7.845,7.845c-4.333,0-7.845-3.512-7.845-7.845      H358.256z"/>
			</g>
			<g id="XMLID_2515_">
				<g id="XMLID_2518_">
					<path id="XMLID_2519_" fill="#30201D" d="M347.882,124.871c-0.229,0-0.433-0.162-0.477-0.396       c-0.339-1.791-1.344-3.042-2.445-3.042c-1.103,0-2.106,1.25-2.44,3.041c-0.05,0.264-0.303,0.434-0.567,0.389       c-0.264-0.049-0.438-0.303-0.389-0.567c0.427-2.294,1.792-3.836,3.396-3.836c1.601,0,2.967,1.541,3.4,3.834       c0.05,0.264-0.124,0.518-0.388,0.568C347.942,124.868,347.912,124.871,347.882,124.871z"/>
				</g>
				<g id="XMLID_2516_">
					<path id="XMLID_2517_" fill="#30201D" d="M358.78,124.871c-0.229,0-0.433-0.162-0.477-0.396       c-0.339-1.791-1.344-3.042-2.445-3.042c-1.103,0-2.106,1.25-2.44,3.041c-0.049,0.263-0.302,0.434-0.567,0.389       c-0.264-0.049-0.438-0.303-0.389-0.568c0.428-2.294,1.793-3.835,3.396-3.835c1.601,0,2.968,1.541,3.401,3.834       c0.05,0.264-0.124,0.518-0.388,0.568C358.84,124.868,358.81,124.871,358.78,124.871z"/>
				</g>
			</g>
		</g>
	</g>
	<g id="XMLID_2537_">
		<circle id="XMLID_2546_" fill="#FFBE56" cx="94.756" cy="144.074" r="9.583"/>
		<g id="XMLID_2538_">
			<g id="XMLID_2544_">
				<path id="XMLID_2545_" fill="#2A94F5" d="M100.702,144.716c0,3.284-2.662,5.946-5.946,5.946c-3.284,0-5.946-2.662-5.946-5.946      H100.702z"/>
			</g>
			<g id="XMLID_2539_">
				<g id="XMLID_2542_">
					<path id="XMLID_2543_" fill="#30201D" d="M92.839,142.822c-0.174,0-0.328-0.123-0.362-0.3       c-0.257-1.358-1.018-2.306-1.853-2.306c-0.836,0-1.596,0.948-1.849,2.305c-0.038,0.2-0.23,0.329-0.43,0.295       c-0.2-0.037-0.332-0.23-0.295-0.43c0.324-1.739,1.358-2.907,2.574-2.907c1.213,0,2.249,1.168,2.577,2.906       c0.038,0.2-0.094,0.393-0.294,0.43C92.885,142.82,92.862,142.822,92.839,142.822z"/>
				</g>
				<g id="XMLID_2540_">
					<path id="XMLID_2541_" fill="#30201D" d="M101.1,142.822c-0.174,0-0.328-0.123-0.362-0.3c-0.257-1.358-1.019-2.306-1.853-2.306       c-0.836,0-1.596,0.948-1.849,2.305c-0.037,0.2-0.229,0.329-0.43,0.295c-0.2-0.037-0.332-0.23-0.295-0.43       c0.324-1.739,1.359-2.907,2.574-2.907c1.213,0,2.249,1.168,2.578,2.906c0.038,0.2-0.094,0.393-0.294,0.43       C101.145,142.82,101.122,142.822,101.1,142.822z"/>
				</g>
			</g>
		</g>
	</g>
	<circle id="XMLID_2602_" fill="#FFBE56" cx="93.208" cy="246.179" r="9.583"/>
	<g id="XMLID_2594_">
		<g id="XMLID_2600_">
			<path id="XMLID_2601_" fill="#2A94F5" d="M99.154,246.821c0,3.284-2.662,5.946-5.946,5.946c-3.284,0-5.946-2.662-5.946-5.946     H99.154z"/>
		</g>
		<g id="XMLID_2595_">
			<g id="XMLID_2598_">
				<path id="XMLID_2599_" fill="#30201D" d="M91.291,244.927c-0.174,0-0.328-0.123-0.362-0.3c-0.257-1.358-1.018-2.306-1.853-2.306      c-0.836,0-1.596,0.948-1.849,2.305c-0.038,0.2-0.23,0.329-0.43,0.295c-0.2-0.038-0.332-0.23-0.295-0.43      c0.324-1.739,1.358-2.907,2.574-2.907c1.213,0,2.249,1.168,2.577,2.906c0.038,0.2-0.094,0.393-0.294,0.43      C91.337,244.925,91.314,244.927,91.291,244.927z"/>
			</g>
			<g id="XMLID_2596_">
				<path id="XMLID_2597_" fill="#30201D" d="M99.552,244.927c-0.174,0-0.328-0.123-0.362-0.3c-0.257-1.358-1.019-2.306-1.853-2.306      c-0.836,0-1.596,0.948-1.849,2.305c-0.037,0.2-0.229,0.329-0.43,0.295c-0.2-0.038-0.332-0.23-0.295-0.43      c0.324-1.739,1.359-2.907,2.574-2.907c1.213,0,2.249,1.168,2.578,2.906c0.038,0.2-0.094,0.393-0.294,0.43      C99.597,244.925,99.574,244.927,99.552,244.927z"/>
			</g>
		</g>
	</g>
	<g id="XMLID_2558_">
		<circle id="XMLID_2567_" fill="#FFBE56" cx="292.829" cy="134.379" r="9.557"/>
		<g id="XMLID_2559_">
			<g id="XMLID_2565_">
				<path id="XMLID_2566_" fill="#2A94F5" d="M298.759,135.02c0,3.275-2.655,5.93-5.93,5.93c-3.275,0-5.93-2.655-5.93-5.93H298.759z      "/>
			</g>
			<g id="XMLID_2560_">
				<g id="XMLID_2563_">
					<path id="XMLID_2564_" fill="#30201D" d="M290.917,133.131c-0.173,0-0.327-0.123-0.361-0.299c-0.256-1.354-1.016-2.3-1.848-2.3       c-0.834,0-1.592,0.945-1.844,2.299c-0.038,0.199-0.229,0.328-0.429,0.294c-0.2-0.037-0.331-0.229-0.294-0.429       c0.323-1.734,1.355-2.9,2.567-2.9c1.21,0,2.243,1.165,2.57,2.898c0.038,0.2-0.093,0.392-0.293,0.429       C290.963,133.128,290.94,133.131,290.917,133.131z"/>
				</g>
				<g id="XMLID_2561_">
					<path id="XMLID_2562_" fill="#30201D" d="M299.155,133.131c-0.173,0-0.327-0.123-0.361-0.299c-0.256-1.354-1.016-2.3-1.848-2.3       c-0.834,0-1.592,0.945-1.844,2.299c-0.037,0.199-0.228,0.328-0.429,0.294c-0.2-0.037-0.331-0.229-0.294-0.429       c0.323-1.734,1.355-2.899,2.567-2.899c1.21,0,2.243,1.165,2.571,2.898c0.038,0.2-0.093,0.392-0.293,0.429       C299.201,133.128,299.178,133.131,299.155,133.131z"/>
				</g>
			</g>
		</g>
	</g>
	<path id="XMLID_2396_" fill="#2A94F5" d="M222.585,114.651H149.27c-4.032,0-7.332,3.299-7.332,7.332v15.006   c0,4.032,3.299,7.332,7.332,7.332h51.841l11.928,11.459l-1.601-11.459h11.147c4.032,0,7.332-3.299,7.332-7.332v-15.006   C229.916,117.95,226.617,114.651,222.585,114.651z"/>
	<path id="XMLID_2394_" fill="#FFFFFF" d="M172.055,123.248c-3.352-6.849-10.2,2.477-10.2,2.477s-6.849-9.326-10.2-2.477   c-3.352,6.849,10.2,15.009,10.2,15.009S175.406,130.097,172.055,123.248z"/>
	<path id="XMLID_2530_" fill="#2A94F5" d="M293.498,331.859h73.316c4.032,0,7.331,3.299,7.331,7.331v15.006   c0,4.032-3.299,7.331-7.331,7.331h-51.841l-11.929,11.459l1.601-11.459h-11.147c-4.032,0-7.331-3.299-7.331-7.331V339.19   C286.167,335.158,289.466,331.859,293.498,331.859z"/>
	<path id="XMLID_2528_" fill="#FFFFFF" d="M316.284,340.456c-3.352-6.849-10.2,2.477-10.2,2.477s-6.849-9.326-10.2-2.477   c-3.352,6.849,10.2,15.009,10.2,15.009S319.635,347.305,316.284,340.456z"/>
	<g>
		<path fill="#D9935C" d="M323.492,236.775c0,0-1.468-7.093,0.879-8.999c2.346-1.906,9.459-8.498,10.79-7.744    c1.331,0.754,3.511,5.226,2.799,7.847c-0.712,2.622-9.674,12.105-9.674,12.105L323.492,236.775z"/>
		<g>
			<path fill="#0E538C" d="M276.791,333.134c-0.749,14.57-3.29,35.361-5.177,56.377h-31.866c-0.685-5.634-1.681-11.126-2.781-16.486     c-1.785-8.686-3.839-17.041-5.278-25.124c-2.9-16.271-2.357-28.988,0.155-38.856c2.153-8.473,5.76-14.846,9.883-19.57     c9.035-10.351,34.193,9.878,34.193,9.878S277.532,318.648,276.791,333.134z"/>
		</g>
		<path fill="#0D4871" d="M262.318,337.765c0,0-0.007,0.104-0.022,0.305c-0.228,2.989-2.233,27.467-8.531,51.44h-14.016    c-0.685-5.634-1.681-11.126-2.781-16.486c2.388-14.054,4.658-25.216,4.658-25.216L262.318,337.765z"/>
		<path fill="#0E538C" d="M264.185,331.84c-0.344,1.381-1.015,3.566-1.889,6.23c-3.595,10.922-10.644,29.904-12.652,34.647    c-2.35,5.552-4.566,11.167-6.654,16.794h-34.874c0.719-13.529,0.896-41.618,1.548-49.098c2.621-30.071,8.311-32.997,8.311-32.997    l13.87,1.628l32.321,3.793C264.166,312.837,269.471,310.543,264.185,331.84z"/>
		<path fill="#163560" d="M270.021,169.108c1.56-12.742-2.419-33.13-27.85-29.872c-25.431,3.258-33.445,28.251-28.316,39.363    c5.129,11.113-7.383,13.793-11.311,25.743c-3.374,10.266-4.551,23.013-10.011,28.733c-17.605,18.443,16.902,46.805,37.704,40.825    c37.891-10.893,42.771-12.519,41.426-42.291c-0.689-15.254-12.557-21.164-5.022-25.577    C284.843,195.371,266.49,197.939,270.021,169.108z"/>
		<path fill="#D9935C" d="M262.326,210.012l-7.544,11.305l-15.132-0.739l-7.001-18.11c0,0,1.304-0.239,2.37-11.001    c0.261-2.826,0.522-6.37,0.761-10.827c0,0-0.022-0.022,0-0.044c0-0.369,0.022-0.739,0.043-1.109l1.957,0.587l16.958,5.174    c0,0-0.087,0.566-0.196,1.544c-0.196,2.153-0.391,6.283,0.5,10.697C255.955,201.968,257.999,206.751,262.326,210.012z"/>
		<path fill="#D9935C" d="M262.376,201.822c-0.973,0-17.488-3.361-45.378,3.774c0,0,15.275,69.981,10.086,83.172    c-5.189,13.19-7.161,24.897-7.161,24.897l56.292,0.698c0,0-0.787-45.273,1.808-61.297    C280.616,237.042,262.376,201.822,262.376,201.822z"/>
		<path fill="#FFBE55" d="M323.201,229.709c0,0-17.98,24.394-21.154,24.154c-3.413-0.282-11.979-30.59-18.458-41.765    c-4.542-7.801-20.187-10.132-21.209-10.276c-0.001,0-0.002,0-0.003-0.001v0c-0.033-0.005-0.05-0.007-0.05-0.007l0.038,0.154    c-0.134,1.443-1.409,13.017-7.815,14.074c-11.814,1.95-21.336-8.874-24.117-13.23c0,0-13.57,3.424-17.552,7.965    c-3.772,4.298,1.389,36.146,2.535,39.199c0.991,2.621,1.927,5.18,2.742,7.75c2.157,6.783,3.475,13.671,2.719,22.155    c-0.823,9.264-9.478,30.431-7.606,34.94c1.962,4.735,4.688,7.134,10.652,8.503c4.111,0.948,9.759,1.404,17.755,1.802    c16.959,0.843,35.132-1.289,37.605-9.351c1.186-3.869,0.729-18.842,0.101-25.753c-0.825-9.085-0.028-20.68,0.766-31.335    c0.038,0.059,0.076,0.117,0.114,0.176c0,0,0,0.022,0.022,0.022c1.826,2.805,3.935,5.805,6.088,8.609    c3.261,4.196,6.653,7.871,9.544,9.566c0.718,0.413,1.392,0.696,2.022,0.848c1.913,0.456,5.674,0.456,9.327-1.631    c0.587-0.326,1.196-0.739,1.783-1.196c10.653-8.457,20.132-34.873,20.132-34.873C330.202,234.058,323.201,229.709,323.201,229.709    z"/>
		<path fill="#E7A329" d="M213.269,314.822c1.962,4.735,4.688,7.134,10.652,8.503c7.972-1.533,13.23-16.202,15.937-23.422    c3.12-8.32-9.719-47.337-14.205-46.947c-3.335,0.289-6.518,4.918-6.627,7.703c2.157,6.783,2.605,10.74,1.848,19.223    C220.052,289.145,211.397,310.313,213.269,314.822z"/>
		<path fill="#E7A329" d="M307.265,276.279c-3.653,2.087-7.414,2.087-9.327,1.631c-0.63-0.152-1.304-0.435-2.022-0.848    c-2.892-1.695-6.283-5.37-9.544-9.566c-2.152-2.805-4.261-5.805-6.088-8.609c0.413-1.522,1.913-2.239,6.761,2.739    c8.153,8.37,9.653,13.98,14.828,14.415C303.656,276.192,305.46,276.279,307.265,276.279z"/>
		<path fill="#CC7C46" d="M255.042,197.489c-5.37,1.478-18.48-15.806-19.263-16.85c-0.022-0.022-0.044-0.044-0.044-0.044h0.044    l2-0.522l16.958,5.174c0,0-0.087,0.566-0.196,1.544C254.347,188.945,254.151,193.075,255.042,197.489z"/>
		<path fill="#D9935C" d="M259.681,186.541c0,0-22.652,4.549-25.267-9.601c-2.616-14.15-7.301-23.092,7.051-26.595    c14.352-3.503,18.168,1.376,20.19,5.886C263.676,160.742,265.505,184.993,259.681,186.541z"/>
		<path fill="#163560" d="M261.939,147.811c-11.174-11.012-20.95-4.557-18.52-1.611c-4.031-0.069-9.559,0.772-13.391,5.083    c-6.698,7.535,5.533,33.085,5.533,33.085s-1.452-16.469,5.998-24.613c3.551-3.881,5.317-7.001,6.195-9.205    c1.399,1.116,2.922,2.054,4.526,2.617c7.208,2.529,11.168,14.125,11.168,14.125C266.026,161.881,266.753,152.555,261.939,147.811z    "/>
		<path fill="#D9935C" d="M235.351,292.29l5.048,2.433c2.234,0.656,3.107,1.263,4.448,1.113c3.238-0.361,9.775-0.159,14.293,6.155    c0,0,2.286,3.747-0.959,4.134c-3.245,0.386-2.091-0.195-6.646,0.443c-4.555,0.638-9.145-3.662-10.572-5.216l-5.287-1.937    L235.351,292.29z"/>
		<path fill="#FFBE55" d="M230.429,202.813c0,0-13.389,0.53-19.598,6.307c-7.021,6.533-19.609,46.156-19.609,71.039    c0,0-0.253,13.706,47.432,22.94c0,0,2.284-1.894,3.142-3.722c1.519-3.237,1.517-5.462,1.517-5.462s-27.962-15.859-28.968-20.851    C213.005,266.402,232.146,240.456,230.429,202.813z"/>
		<path fill="#4F80FF" d="M380.665,203.109c0,0-39.484-7.879-86.704-7.242l-2.732-12.868l-2.998-14.099    c0,0,49.331-11.966,81.651-34.82L380.665,203.109z"/>
		<path fill="#FFBE55" d="M380.665,203.109L380.665,203.109c3.495-0.4,5.912-3.605,5.296-7.02l-10.637-58.94    c-0.515-2.856-2.587-3.761-5.441-3.068L380.665,203.109z"/>
		<path fill="#0C538E" d="M334.825,197.251c27.1,2.118,45.841,5.858,45.841,5.858s-44.92-21.574-89.435-20.11l2.732,12.868    c8.369-0.113,16.494,0.042,24.2,0.373c-0.014,0.237-0.02,0.477-0.013,0.719l1.165,40.578c0.131,4.58,3.986,8.219,8.566,8.088l0,0    c4.58-0.132,8.219-3.986,8.088-8.566L334.825,197.251z"/>
		<path fill="#FFBE55" d="M306.968,195.904l-12.773,0.099c0.188,0.039-11.909,0.346-13.959-10.788    c-0.23-0.776-0.335-1.524-0.35-2.387c-0.754-13.573,6.758-14.775,6.758-14.775l17.028-3.573l1.978,18.988c0,0,0,0-0.013,0.063    L306.968,195.904z"/>
		<path fill="#E7A329" d="M306.968,195.904l-12.773,0.099c0.188,0.039-11.909,0.346-13.959-10.788    c7.893-3.964,25.413-1.747,25.413-1.747s0,0-0.013,0.063L306.968,195.904z"/>
		<rect x="173.984" y="97.252" fill="none" width="245.13" height="251.212"/>
	</g>
</g>
<g xmlns="http://www.w3.org/2000/svg" id="DESIGNED_BY_FREEPIK">
</g>
</svg>