<svg id="Layer_1" enable-background="new 0 0 512 512" height="512" viewBox="0 0 512 512" width="512" xmlns="http://www.w3.org/2000/svg"><g><path d="m356.415 253.463s5.962 24.147 3.405 50.826c-1.964 20.495-11.373 37.991-20.88 53.199 0 0 6.202-3.172 8.129-4.274 19.373-11.075 37.087-24.862 52.677-40.884l72.808-74.824c53.364-54.841 52.463-143.675-2.002-197.407-54.465-53.733-142.688-52.826-196.051 2.016l-84.726 87.072c-53.364 54.841-52.463 143.675 2.002 197.407 16.109 15.892 33.845 26.561 54.085 32.912 0 0 16.786-14.825 28.703-29.6 12.711-15.76 19.001-34.06 19.001-34.06-10.678.873-29.754-3.109-29.754-3.109-9.697-3.042-16.561-7.608-24.278-15.221-26.089-25.738-26.52-68.289-.959-94.558l90.313-92.814c25.561-26.269 67.82-26.704 93.909-.966 26.089 25.738 26.52 68.289.959 94.558z" fill="#1766a0"/><path d="" style="fill:none;stroke:#000;stroke-width:30;stroke-linecap:round;stroke-linejoin:round;stroke-miterlimit:10"/><path d="m154.232 259.935s-6.032-25.111-2.674-51.699c2.479-19.632 9.059-35.811 17.506-51.69 0 0-2.209 1.139-4.136 2.241-19.373 11.075-37.087 24.862-52.677 40.884l-72.808 74.824c-53.364 54.841-52.463 143.675 2.002 197.407 54.465 53.733 142.688 52.826 196.051-2.016l84.726-87.072c53.364-54.841 52.463-143.675-2.002-197.407-16.108-15.892-32.537-25.765-52.777-32.116 0 0-8.952 8.954-28.868 29.667-16.243 16.893-17.494 33.053-17.494 33.053 10.678-.873 27.103 3.254 27.103 3.254 9.697 3.042 16.561 7.608 24.278 15.221 26.089 25.738 26.52 68.289.959 94.558l-90.313 92.814c-25.561 26.269-67.82 26.704-93.909.966-26.089-25.738-26.52-68.289-.959-94.558z" fill="#00337a"/><g fill="#145481"><path d="m191.785 326.586c16.108 15.892 33.845 26.561 54.085 32.912 0 0 16.786-14.825 28.703-29.6 12.711-15.76 19.001-34.06 19.001-34.06-10.678.873-29.754-3.109-29.754-3.109-9.697-3.042-16.561-7.608-24.278-15.221-.479-.472-.93-.961-1.391-1.444l-48.266 48.6c.628.643 1.257 1.288 1.9 1.922z"/><path d="m472.563 237.498c53.043-54.512 52.462-142.601-1.034-196.428l-48.254 48.588c25.61 25.784 25.891 67.964.488 94.07l-67.34 69.728s5.962 24.147 3.405 50.826c-1.964 20.495-11.373 37.991-20.88 53.199 0 0 6.202-3.172 8.129-4.274 19.373-11.075 37.087-24.862 52.677-40.884z"/></g><path d="m324.207 189.411-48.31 48.645c22.674 25.962 21.976 65.86-2.422 90.934l-90.313 92.814c-25.03 25.723-66.061 26.657-92.252 2.518l-48.281 48.615c54.548 52.619 141.922 51.361 194.919-3.104l84.726-87.072c52.043-53.485 52.465-139.294 1.933-193.35z" fill="#002659"/></g></svg>